<svg width="592" height="926" viewBox="0 0 592 926" fill="none" xmlns="http://www.w3.org/2000/svg">
<g id="undraw_Christmas_stocking_wux9 1">
<g id="cerf">
<path id="Vector" d="M519.61 187.455V218.885C519.61 222.092 518.336 225.167 516.069 227.434C513.802 229.702 510.726 230.975 507.52 230.975V230.975C505.931 230.977 504.358 230.665 502.89 230.058C501.422 229.451 500.088 228.561 498.965 227.438C497.841 226.315 496.949 224.982 496.341 223.514C495.733 222.047 495.42 220.474 495.42 218.885V111.965C495.415 110.684 495.134 109.418 494.596 108.255C494.057 107.092 493.274 106.058 492.3 105.225C488.493 101.892 484.473 98.7021 480.24 95.6554C478.924 94.6859 477.366 94.0996 475.737 93.9616C474.109 93.8235 472.474 94.1391 471.014 94.8733C469.554 95.6074 468.326 96.7316 467.465 98.1211C466.605 99.5106 466.146 101.111 466.14 102.745V218.885C466.14 220.474 465.827 222.047 465.219 223.514C464.611 224.982 463.719 226.315 462.595 227.438C461.472 228.561 460.138 229.451 458.67 230.058C457.202 230.665 455.629 230.977 454.04 230.975V230.975C450.84 230.965 447.776 229.686 445.517 227.42C443.258 225.154 441.99 222.085 441.99 218.885V79.0454C441.991 77.3258 441.49 75.6433 440.549 74.2044C439.607 72.7655 438.266 71.6328 436.69 70.9454C435.58 70.4554 434.45 69.9454 433.32 69.4954C432.054 68.9662 430.683 68.7396 429.314 68.8335C427.945 68.9274 426.618 69.3393 425.436 70.0364C424.255 70.7334 423.252 71.6965 422.508 72.849C421.764 74.0015 421.299 75.3117 421.15 76.6754C411.89 160.055 366.6 223.345 312.15 223.345C256.66 223.345 210.7 157.675 202.64 71.9954C202.514 70.6548 202.083 69.3608 201.38 68.2126C200.676 67.0644 199.719 66.0925 198.582 65.3714C197.445 64.6503 196.158 64.1991 194.819 64.0525C193.481 63.9058 192.126 64.0676 190.86 64.5254L187.99 65.5954C186.31 66.2298 184.864 67.3613 183.844 68.8388C182.824 70.3164 182.278 72.0698 182.28 73.8654V218.865C182.28 222.072 181.006 225.147 178.739 227.414C176.472 229.682 173.396 230.955 170.19 230.955V230.955C168.595 230.97 167.012 230.669 165.534 230.069C164.056 229.469 162.711 228.582 161.577 227.46C160.443 226.338 159.542 225.003 158.926 223.531C158.311 222.06 157.993 220.481 157.99 218.885V94.1954C157.995 92.627 157.582 91.0856 156.793 89.7301C156.004 88.3746 154.868 87.254 153.501 86.4837C152.135 85.7135 150.588 85.3215 149.02 85.3482C147.452 85.3748 145.919 85.8192 144.58 86.6354C140.373 89.2354 136.32 91.9321 132.42 94.7254C131.275 95.5453 130.341 96.6259 129.696 97.8778C129.051 99.1297 128.713 100.517 128.71 101.925V218.925C128.71 220.514 128.397 222.087 127.789 223.554C127.181 225.022 126.289 226.355 125.165 227.478C124.042 228.601 122.708 229.491 121.24 230.098C119.772 230.705 118.199 231.017 116.61 231.015V231.015C113.404 231.015 110.328 229.742 108.061 227.474C105.794 225.207 104.52 222.132 104.52 218.925V146.415C104.52 137.345 92.52 134.195 88 142.055C78.92 157.875 74 174.955 74 192.785C74 274.345 177.75 340.475 305.72 340.475C433.69 340.475 537.44 274.345 537.44 192.785C537.44 190.785 537.37 188.785 537.25 186.785C536.54 175.465 519.61 176.135 519.61 187.455Z" fill="#373E46"/>
<path id="Vector_2" d="M428.86 536.39C428.86 617.26 369.58 682.81 296.45 682.81C223.32 682.81 164 617.26 164 536.39C164 532.277 164.153 528.207 164.46 524.18C167.88 478.31 190.46 438.42 223.28 414.32C223.298 414.297 223.322 414.279 223.35 414.27C244.488 398.558 270.113 390.05 296.45 390C316.326 389.997 335.899 394.873 353.45 404.2C353.604 404.269 353.754 404.345 353.9 404.43C393.14 425.35 421.63 467.04 427.68 516.59C428.488 523.159 428.882 529.772 428.86 536.39V536.39Z" fill="#975656"/>
<path id="Vector_3" opacity="0.1" d="M395.45 326.54C394.619 326.668 393.78 326.735 392.94 326.74H196.87C196.03 326.735 195.191 326.668 194.36 326.54C199.459 308.418 209.356 292.008 223.008 279.045C236.659 266.082 253.558 257.045 271.92 252.89H317.92C336.276 257.05 353.169 266.088 366.815 279.052C380.461 292.015 390.354 308.421 395.45 326.54V326.54Z" fill="black"/>
<path id="Vector_4" opacity="0.1" d="M395.45 326.54C394.619 326.668 393.78 326.735 392.94 326.74H196.87C196.03 326.735 195.191 326.668 194.36 326.54C199.459 308.418 209.356 292.008 223.008 279.045C236.659 266.082 253.558 257.045 271.92 252.89H317.92C336.276 257.05 353.169 266.088 366.815 279.052C380.461 292.015 390.354 308.421 395.45 326.54V326.54Z" fill="black"/>
<path id="Vector_5" opacity="0.1" d="M395.45 326.54C394.619 326.668 393.78 326.735 392.94 326.74H196.87C196.03 326.735 195.191 326.668 194.36 326.54C199.459 308.418 209.356 292.008 223.008 279.045C236.659 266.082 253.558 257.045 271.92 252.89H317.92C336.276 257.05 353.169 266.088 366.815 279.052C380.461 292.015 390.354 308.421 395.45 326.54V326.54Z" fill="black"/>
<path id="Vector_6" d="M401.84 317.735C401.804 344.149 391.744 369.565 373.691 388.846C355.638 408.128 330.939 419.838 304.585 421.61C278.231 423.383 252.186 415.085 231.714 398.394C211.242 381.703 197.869 357.863 194.298 331.692C190.726 305.521 197.222 278.97 212.472 257.404C227.723 235.837 250.592 220.864 276.457 215.51C302.322 210.155 329.256 214.819 351.815 228.558C374.375 242.297 390.878 264.087 397.99 289.525C400.556 298.709 401.851 308.2 401.84 317.735V317.735Z" fill="#975656"/>
<path id="Vector_7" d="M401.84 317.735C401.804 344.149 391.744 369.565 373.691 388.846C355.638 408.128 330.939 419.838 304.585 421.61C278.231 423.383 252.186 415.085 231.714 398.394C211.242 381.703 197.869 357.863 194.298 331.692C190.726 305.521 197.222 278.97 212.472 257.404C227.723 235.837 250.592 220.864 276.457 215.51C302.322 210.155 329.256 214.819 351.815 228.558C374.375 242.297 390.878 264.087 397.99 289.525C400.556 298.709 401.851 308.2 401.84 317.735V317.735Z" fill="#975656"/>
<path id="Vector_8" d="M401.84 317.735C401.804 344.149 391.744 369.565 373.691 388.846C355.638 408.128 330.939 419.838 304.585 421.61C278.231 423.383 252.186 415.085 231.714 398.394C211.242 381.703 197.869 357.863 194.298 331.692C190.726 305.521 197.222 278.97 212.472 257.404C227.723 235.837 250.592 220.864 276.457 215.51C302.322 210.155 329.256 214.819 351.815 228.558C374.375 242.297 390.878 264.087 397.99 289.525C400.556 298.709 401.851 308.2 401.84 317.735V317.735Z" fill="#975656"/>
<path id="Vector_9" d="M257.97 317.745C265.707 317.745 271.98 311.473 271.98 303.735C271.98 295.998 265.707 289.725 257.97 289.725C250.232 289.725 243.96 295.998 243.96 303.735C243.96 311.473 250.232 317.745 257.97 317.745Z" fill="#EEEFF0"/>
<path id="Vector_10" d="M257.97 317.745C265.707 317.745 271.98 311.473 271.98 303.735C271.98 295.998 265.707 289.725 257.97 289.725C250.232 289.725 243.96 295.998 243.96 303.735C243.96 311.473 250.232 317.745 257.97 317.745Z" fill="#EEEFF0"/>
<path id="Vector_11" d="M257.97 317.745C265.707 317.745 271.98 311.473 271.98 303.735C271.98 295.998 265.707 289.725 257.97 289.725C250.232 289.725 243.96 295.998 243.96 303.735C243.96 311.473 250.232 317.745 257.97 317.745Z" fill="#EEEFF0"/>
<path id="Vector_12" d="M258.97 309.105C262.488 309.105 265.34 306.253 265.34 302.735C265.34 299.217 262.488 296.365 258.97 296.365C255.452 296.365 252.6 299.217 252.6 302.735C252.6 306.253 255.452 309.105 258.97 309.105Z" fill="#373E46"/>
<path id="Vector_13" d="M258.97 309.105C262.488 309.105 265.34 306.253 265.34 302.735C265.34 299.217 262.488 296.365 258.97 296.365C255.452 296.365 252.6 299.217 252.6 302.735C252.6 306.253 255.452 309.105 258.97 309.105Z" fill="#373E46"/>
<path id="Vector_14" d="M258.97 309.105C262.488 309.105 265.34 306.253 265.34 302.735C265.34 299.217 262.488 296.365 258.97 296.365C255.452 296.365 252.6 299.217 252.6 302.735C252.6 306.253 255.452 309.105 258.97 309.105Z" fill="#373E46"/>
<path id="Vector_15" d="M259.24 302.455C259.941 302.455 260.51 301.887 260.51 301.185C260.51 300.484 259.941 299.915 259.24 299.915C258.539 299.915 257.97 300.484 257.97 301.185C257.97 301.887 258.539 302.455 259.24 302.455Z" fill="white"/>
<path id="Vector_16" d="M259.24 302.455C259.941 302.455 260.51 301.887 260.51 301.185C260.51 300.484 259.941 299.915 259.24 299.915C258.539 299.915 257.97 300.484 257.97 301.185C257.97 301.887 258.539 302.455 259.24 302.455Z" fill="white"/>
<path id="Vector_17" d="M259.24 302.455C259.941 302.455 260.51 301.887 260.51 301.185C260.51 300.484 259.941 299.915 259.24 299.915C258.539 299.915 257.97 300.484 257.97 301.185C257.97 301.887 258.539 302.455 259.24 302.455Z" fill="white"/>
<path id="Vector_18" d="M343 316.745C350.738 316.745 357.01 310.473 357.01 302.735C357.01 294.998 350.738 288.725 343 288.725C335.262 288.725 328.99 294.998 328.99 302.735C328.99 310.473 335.262 316.745 343 316.745Z" fill="#EEEFF0"/>
<path id="Vector_19" d="M343 316.745C350.738 316.745 357.01 310.473 357.01 302.735C357.01 294.998 350.738 288.725 343 288.725C335.262 288.725 328.99 294.998 328.99 302.735C328.99 310.473 335.262 316.745 343 316.745Z" fill="#EEEFF0"/>
<path id="Vector_20" d="M343 316.745C350.738 316.745 357.01 310.473 357.01 302.735C357.01 294.998 350.738 288.725 343 288.725C335.262 288.725 328.99 294.998 328.99 302.735C328.99 310.473 335.262 316.745 343 316.745Z" fill="#EEEFF0"/>
<path id="Vector_21" d="M343 309.105C346.518 309.105 349.37 306.253 349.37 302.735C349.37 299.217 346.518 296.365 343 296.365C339.482 296.365 336.63 299.217 336.63 302.735C336.63 306.253 339.482 309.105 343 309.105Z" fill="#373E46"/>
<path id="Vector_22" d="M343 309.105C346.518 309.105 349.37 306.253 349.37 302.735C349.37 299.217 346.518 296.365 343 296.365C339.482 296.365 336.63 299.217 336.63 302.735C336.63 306.253 339.482 309.105 343 309.105Z" fill="#373E46"/>
<path id="Vector_23" d="M343 309.105C346.518 309.105 349.37 306.253 349.37 302.735C349.37 299.217 346.518 296.365 343 296.365C339.482 296.365 336.63 299.217 336.63 302.735C336.63 306.253 339.482 309.105 343 309.105Z" fill="#373E46"/>
<path id="Vector_24" d="M340.46 301.455C341.161 301.455 341.73 300.887 341.73 300.185C341.73 299.484 341.161 298.915 340.46 298.915C339.759 298.915 339.19 299.484 339.19 300.185C339.19 300.887 339.759 301.455 340.46 301.455Z" fill="white"/>
<path id="Vector_25" d="M340.46 301.455C341.161 301.455 341.73 300.887 341.73 300.185C341.73 299.484 341.161 298.915 340.46 298.915C339.759 298.915 339.19 299.484 339.19 300.185C339.19 300.887 339.759 301.455 340.46 301.455Z" fill="white"/>
<path id="Vector_26" d="M340.46 301.455C341.161 301.455 341.73 300.887 341.73 300.185C341.73 299.484 341.161 298.915 340.46 298.915C339.759 298.915 339.19 299.484 339.19 300.185C339.19 300.887 339.759 301.455 340.46 301.455Z" fill="white"/>
<path id="Vector_27" d="M299.99 364.275C310.539 364.275 319.09 355.724 319.09 345.175C319.09 334.627 310.539 326.075 299.99 326.075C289.441 326.075 280.89 334.627 280.89 345.175C280.89 355.724 289.441 364.275 299.99 364.275Z" fill="#C50000"/>
<path id="Vector_28" d="M299.99 364.275C310.539 364.275 319.09 355.724 319.09 345.175C319.09 334.627 310.539 326.075 299.99 326.075C289.441 326.075 280.89 334.627 280.89 345.175C280.89 355.724 289.441 364.275 299.99 364.275Z" fill="#C50000"/>
<path id="Vector_29" d="M299.99 364.275C310.539 364.275 319.09 355.724 319.09 345.175C319.09 334.627 310.539 326.075 299.99 326.075C289.441 326.075 280.89 334.627 280.89 345.175C280.89 355.724 289.441 364.275 299.99 364.275Z" fill="#C50000"/>
</g>
<g id="chaussette">
<path id="Vector_30" d="M540.7 770.02C540.709 783.629 537.195 797.009 530.501 808.859C523.807 820.708 514.161 830.623 502.5 837.64C492.438 843.758 481.122 847.519 469.4 848.64C466.89 848.89 464.33 849.01 461.76 849.01H315.34C311.5 849.01 307.68 848.89 303.88 848.63C300.46 848.4 297.07 848.08 293.7 847.63C285.965 846.651 278.307 845.141 270.78 843.11C267.34 842.183 263.943 841.153 260.59 840.02C252.732 837.346 245.081 834.098 237.7 830.3C234.227 828.52 230.83 826.63 227.51 824.63C219.427 819.766 211.76 814.241 204.59 808.11C201.07 805.11 197.677 801.963 194.41 798.67C162.541 766.742 144.66 723.462 144.7 678.35V501.35H438.84V668.17C438.837 673.808 440.914 679.249 444.672 683.452C448.43 687.655 453.607 690.325 459.21 690.95C460.05 691.03 460.9 691.09 461.76 691.09C464.33 691.09 466.89 691.21 469.4 691.45C481.119 692.586 492.432 696.346 502.5 702.45C514.144 709.473 523.779 719.382 530.471 731.22C537.163 743.057 540.686 756.422 540.7 770.02V770.02Z" fill="#C50000"/>
<path id="Vector_31" d="M438.47 453H145.11C137.87 453 132 458.87 132 466.11V506.1C132 513.34 137.87 519.21 145.11 519.21H438.47C445.71 519.21 451.58 513.34 451.58 506.1V466.11C451.58 458.87 445.71 453 438.47 453Z" fill="#EEEFF0"/>
<path id="Vector_32" d="M466.16 789.9L454.78 783.81C454.315 783.561 453.783 783.466 453.26 783.538C452.737 783.609 452.251 783.845 451.87 784.21L442.57 793.15C442.189 793.514 441.703 793.749 441.181 793.82C440.659 793.891 440.128 793.796 439.664 793.548C439.199 793.3 438.825 792.911 438.594 792.437C438.364 791.963 438.289 791.429 438.38 790.91L440.7 778.21C440.792 777.691 440.718 777.157 440.488 776.682C440.258 776.208 439.884 775.819 439.42 775.57L428.04 769.48C427.573 769.233 427.197 768.844 426.965 768.369C426.734 767.894 426.66 767.358 426.753 766.838C426.847 766.318 427.103 765.841 427.486 765.477C427.868 765.112 428.356 764.879 428.88 764.81L441.66 763.05C442.178 762.979 442.66 762.748 443.04 762.389C443.42 762.031 443.679 761.563 443.78 761.05L446.05 748.35C446.143 747.831 446.398 747.354 446.779 746.988C447.16 746.623 447.646 746.387 448.169 746.315C448.692 746.243 449.224 746.338 449.689 746.587C450.155 746.835 450.53 747.225 450.76 747.7L456.38 759.31C456.608 759.787 456.982 760.178 457.448 760.428C457.914 760.678 458.447 760.773 458.97 760.7L471.7 758.9C472.223 758.825 472.756 758.918 473.223 759.165C473.69 759.413 474.065 759.803 474.296 760.278C474.526 760.754 474.6 761.29 474.505 761.81C474.411 762.33 474.153 762.806 473.77 763.17L464.46 772.11C464.081 772.476 463.828 772.953 463.736 773.472C463.645 773.991 463.72 774.526 463.95 775L469.57 786.61C469.801 787.083 469.877 787.617 469.785 788.135C469.694 788.654 469.441 789.13 469.062 789.496C468.683 789.861 468.198 790.097 467.677 790.17C467.155 790.242 466.624 790.148 466.16 789.9V789.9Z" fill="#EEEFF0"/>
<path id="Vector_33" d="M181.64 498.06L174.64 494.29C174.351 494.138 174.023 494.081 173.7 494.126C173.377 494.171 173.076 494.316 172.84 494.54L167.09 500.07C166.853 500.293 166.553 500.435 166.231 500.478C165.908 500.52 165.581 500.461 165.295 500.307C165.009 500.153 164.778 499.914 164.635 499.622C164.493 499.33 164.445 499 164.5 498.68L165.91 490.83C165.969 490.51 165.924 490.179 165.782 489.886C165.64 489.592 165.408 489.352 165.12 489.2L158.12 485.43C157.831 485.278 157.597 485.038 157.453 484.745C157.309 484.452 157.262 484.12 157.319 483.799C157.376 483.477 157.533 483.182 157.769 482.955C158.005 482.729 158.306 482.584 158.63 482.54L166.54 481.45C166.862 481.408 167.161 481.264 167.395 481.039C167.629 480.814 167.785 480.52 167.84 480.2L169.25 472.35C169.309 472.031 169.468 471.738 169.702 471.514C169.937 471.289 170.236 471.144 170.558 471.099C170.879 471.053 171.207 471.11 171.494 471.261C171.782 471.412 172.015 471.65 172.16 471.94L175.64 479.13C175.783 479.423 176.014 479.662 176.302 479.815C176.589 479.968 176.918 480.026 177.24 479.98L185.14 478.89C185.463 478.844 185.793 478.901 186.081 479.055C186.369 479.208 186.602 479.449 186.744 479.743C186.886 480.036 186.932 480.368 186.874 480.689C186.815 481.01 186.657 481.305 186.42 481.53L180.66 487.06C180.426 487.285 180.269 487.578 180.211 487.898C180.154 488.218 180.199 488.547 180.34 488.84L183.82 496.02C183.976 496.32 184.03 496.663 183.973 496.997C183.916 497.33 183.751 497.636 183.504 497.867C183.257 498.098 182.941 498.242 182.604 498.277C182.268 498.312 181.929 498.236 181.64 498.06V498.06Z" fill="#C50000"/>
<path id="Vector_34" d="M226.21 498.06L219.21 494.29C218.923 494.139 218.596 494.082 218.275 494.127C217.954 494.172 217.655 494.316 217.42 494.54L211.66 500.07C211.425 500.295 211.124 500.44 210.802 500.484C210.479 500.528 210.151 500.468 209.864 500.314C209.578 500.159 209.347 499.918 209.206 499.624C209.065 499.331 209.021 499 209.08 498.68L210.48 490.83C210.539 490.51 210.494 490.179 210.352 489.886C210.21 489.592 209.978 489.352 209.69 489.2L202.69 485.43C202.4 485.278 202.167 485.037 202.023 484.743C201.88 484.449 201.834 484.117 201.892 483.795C201.95 483.473 202.109 483.177 202.346 482.952C202.583 482.726 202.885 482.582 203.21 482.54L211.11 481.45C211.432 481.407 211.733 481.262 211.968 481.038C212.203 480.813 212.362 480.52 212.42 480.2L213.82 472.35C213.881 472.037 214.037 471.751 214.266 471.53C214.495 471.309 214.787 471.164 215.102 471.115C215.417 471.066 215.739 471.115 216.025 471.255C216.311 471.396 216.547 471.621 216.7 471.9L220.18 479.09C220.323 479.383 220.554 479.622 220.842 479.775C221.129 479.928 221.458 479.986 221.78 479.94L229.68 478.85C230.003 478.804 230.333 478.861 230.621 479.015C230.909 479.168 231.142 479.409 231.284 479.703C231.426 479.996 231.472 480.328 231.414 480.649C231.355 480.97 231.197 481.265 230.96 481.49L225.21 487.02C224.972 487.242 224.812 487.536 224.754 487.857C224.696 488.178 224.744 488.509 224.89 488.8L228.36 495.98C228.534 496.278 228.603 496.625 228.556 496.966C228.509 497.308 228.349 497.624 228.101 497.863C227.853 498.103 227.532 498.253 227.189 498.288C226.847 498.324 226.502 498.244 226.21 498.06Z" fill="#C50000"/>
<path id="Vector_35" d="M270.77 498.06L263.77 494.29C263.481 494.138 263.153 494.081 262.83 494.126C262.507 494.171 262.206 494.315 261.97 494.54L256.21 500.07C255.975 500.295 255.674 500.44 255.352 500.484C255.029 500.528 254.701 500.468 254.414 500.314C254.128 500.159 253.897 499.918 253.756 499.624C253.615 499.331 253.571 499 253.63 498.68L255.03 490.83C255.089 490.51 255.044 490.179 254.902 489.885C254.76 489.592 254.528 489.352 254.24 489.2L247.24 485.43C246.95 485.278 246.717 485.037 246.573 484.743C246.43 484.449 246.384 484.117 246.442 483.795C246.5 483.473 246.659 483.177 246.896 482.952C247.133 482.726 247.435 482.582 247.76 482.54L255.66 481.45C255.982 481.407 256.283 481.262 256.518 481.038C256.753 480.813 256.912 480.52 256.97 480.2L258.38 472.35C258.436 472.03 258.593 471.736 258.826 471.51C259.06 471.284 259.359 471.137 259.681 471.092C260.003 471.046 260.331 471.104 260.618 471.256C260.905 471.409 261.137 471.648 261.28 471.94L264.76 479.13C264.903 479.423 265.134 479.662 265.422 479.815C265.709 479.968 266.038 480.026 266.36 479.98L274.26 478.89C274.583 478.844 274.913 478.901 275.201 479.055C275.489 479.208 275.722 479.449 275.864 479.743C276.007 480.036 276.052 480.368 275.994 480.689C275.935 481.01 275.777 481.305 275.54 481.53L269.7 487.06C269.466 487.285 269.309 487.578 269.251 487.898C269.194 488.218 269.239 488.547 269.38 488.84L272.86 496.02C272.994 496.311 273.034 496.636 272.976 496.95C272.918 497.265 272.764 497.554 272.535 497.777C272.306 498.001 272.013 498.148 271.697 498.199C271.381 498.249 271.057 498.201 270.77 498.06V498.06Z" fill="#C50000"/>
<path id="Vector_36" d="M315.33 498.06L308.33 494.29C308.041 494.138 307.713 494.081 307.39 494.126C307.067 494.171 306.766 494.316 306.53 494.54L300.78 500.07C300.543 500.293 300.243 500.435 299.921 500.478C299.599 500.52 299.271 500.461 298.985 500.307C298.699 500.153 298.468 499.914 298.325 499.622C298.183 499.33 298.135 499 298.19 498.68L299.6 490.83C299.657 490.51 299.612 490.179 299.47 489.887C299.328 489.594 299.097 489.353 298.81 489.2L291.81 485.43C291.526 485.273 291.299 485.032 291.159 484.739C291.02 484.446 290.976 484.117 291.034 483.799C291.091 483.48 291.247 483.187 291.479 482.961C291.712 482.735 292.009 482.588 292.33 482.54L300.23 481.45C300.553 481.408 300.854 481.264 301.09 481.04C301.325 480.815 301.483 480.521 301.54 480.2L302.95 472.35C303.004 472.027 303.159 471.729 303.394 471.5C303.628 471.271 303.93 471.122 304.254 471.077C304.579 471.031 304.91 471.09 305.199 471.245C305.488 471.401 305.719 471.644 305.86 471.94L309.33 479.13C309.473 479.423 309.704 479.662 309.992 479.815C310.279 479.968 310.608 480.026 310.93 479.98L318.84 478.89C319.162 478.846 319.49 478.906 319.777 479.06C320.063 479.214 320.293 479.455 320.434 479.748C320.575 480.042 320.62 480.372 320.562 480.692C320.503 481.012 320.345 481.305 320.11 481.53L314.36 487.06C314.126 487.285 313.969 487.578 313.911 487.898C313.854 488.218 313.899 488.547 314.04 488.84L317.52 496.02C317.679 496.321 317.735 496.667 317.678 497.003C317.621 497.339 317.456 497.646 317.206 497.879C316.957 498.111 316.638 498.255 316.299 498.287C315.96 498.32 315.619 498.24 315.33 498.06V498.06Z" fill="#C50000"/>
<path id="Vector_37" d="M359.89 498.06L352.89 494.29C352.601 494.138 352.273 494.081 351.95 494.126C351.627 494.171 351.326 494.316 351.09 494.54L345.34 500.07C345.103 500.293 344.803 500.435 344.481 500.478C344.159 500.52 343.831 500.461 343.545 500.307C343.259 500.153 343.028 499.914 342.885 499.622C342.743 499.33 342.695 499 342.75 498.68L344.16 490.83C344.219 490.51 344.174 490.179 344.032 489.886C343.89 489.592 343.658 489.352 343.37 489.2L336.37 485.43C336.081 485.278 335.847 485.038 335.703 484.745C335.559 484.452 335.512 484.12 335.569 483.799C335.626 483.477 335.783 483.182 336.019 482.955C336.255 482.729 336.556 482.584 336.88 482.54L344.79 481.45C345.112 481.408 345.412 481.264 345.645 481.039C345.879 480.814 346.035 480.52 346.09 480.2L347.5 472.35C347.559 472.031 347.718 471.738 347.952 471.514C348.187 471.289 348.486 471.144 348.808 471.099C349.129 471.053 349.457 471.11 349.744 471.261C350.032 471.412 350.265 471.65 350.41 471.94L353.89 479.13C354.031 479.422 354.261 479.661 354.547 479.814C354.832 479.967 355.159 480.025 355.48 479.98L363.39 478.89C363.713 478.844 364.043 478.901 364.331 479.055C364.619 479.208 364.852 479.449 364.994 479.743C365.137 480.036 365.182 480.368 365.124 480.689C365.065 481.01 364.907 481.305 364.67 481.53L358.91 487.06C358.676 487.285 358.519 487.578 358.461 487.898C358.404 488.218 358.449 488.547 358.59 488.84L362.07 496.02C362.226 496.32 362.28 496.663 362.223 496.997C362.166 497.33 362.001 497.636 361.754 497.867C361.507 498.098 361.191 498.242 360.854 498.277C360.518 498.312 360.179 498.236 359.89 498.06V498.06Z" fill="#C50000"/>
<path id="Vector_38" d="M404.46 498.06L397.46 494.29C397.173 494.139 396.846 494.082 396.525 494.127C396.204 494.172 395.905 494.316 395.67 494.54L389.91 500.07C389.673 500.293 389.373 500.435 389.051 500.478C388.729 500.52 388.401 500.461 388.115 500.307C387.829 500.153 387.598 499.914 387.455 499.622C387.313 499.33 387.265 499 387.32 498.68L388.73 490.83C388.789 490.51 388.744 490.179 388.602 489.886C388.46 489.592 388.228 489.352 387.94 489.2L380.94 485.43C380.65 485.278 380.417 485.037 380.273 484.743C380.13 484.449 380.084 484.117 380.142 483.795C380.2 483.473 380.359 483.177 380.596 482.952C380.833 482.726 381.135 482.582 381.46 482.54L389.36 481.45C389.682 481.407 389.983 481.262 390.218 481.038C390.453 480.813 390.612 480.52 390.67 480.2L392.07 472.35C392.129 472.031 392.288 471.738 392.522 471.514C392.757 471.289 393.056 471.144 393.378 471.099C393.699 471.053 394.027 471.11 394.314 471.261C394.602 471.412 394.835 471.65 394.98 471.94L398.46 479.13C398.603 479.423 398.834 479.662 399.122 479.815C399.409 479.968 399.738 480.026 400.06 479.98L407.96 478.89C408.283 478.844 408.613 478.901 408.901 479.055C409.189 479.208 409.422 479.449 409.564 479.743C409.707 480.036 409.752 480.368 409.694 480.689C409.635 481.01 409.477 481.305 409.24 481.53L403.49 487.06C403.252 487.282 403.092 487.576 403.034 487.897C402.976 488.218 403.024 488.549 403.17 488.84L406.64 496.02C406.805 496.32 406.866 496.667 406.813 497.005C406.759 497.343 406.594 497.654 406.344 497.888C406.094 498.122 405.773 498.266 405.431 498.297C405.09 498.329 404.748 498.245 404.46 498.06V498.06Z" fill="#C50000"/>
</g>
</g>
</svg>
