<svg width="140" height="220" viewBox="0 0 140 220" fill="none" xmlns="http://www.w3.org/2000/svg">
<g id="undraw_Christmas_stocking_wux9 1">
<g id="cerf">
<path id="Vector" d="M122.881 44.5358V52.003C122.881 52.7648 122.58 53.4954 122.043 54.0341C121.507 54.5727 120.78 54.8754 120.022 54.8754V54.8754C119.646 54.8757 119.274 54.8016 118.927 54.6574C118.58 54.5132 118.264 54.3017 117.998 54.0349C117.733 53.7682 117.522 53.4514 117.378 53.1028C117.234 52.7541 117.16 52.3804 117.16 52.003V26.6008C117.159 26.2963 117.093 25.9956 116.965 25.7193C116.838 25.4429 116.653 25.1974 116.422 24.9996C115.522 24.2076 114.571 23.4497 113.57 22.7259C113.259 22.4956 112.891 22.3563 112.506 22.3235C112.12 22.2907 111.734 22.3657 111.388 22.5401C111.043 22.7145 110.753 22.9816 110.549 23.3117C110.346 23.6418 110.237 24.0221 110.236 24.4104V52.003C110.236 52.3804 110.162 52.7541 110.018 53.1028C109.874 53.4514 109.663 53.7682 109.398 54.0349C109.132 54.3017 108.816 54.5132 108.469 54.6574C108.122 54.8016 107.75 54.8757 107.374 54.8754V54.8754C106.618 54.8728 105.893 54.5691 105.359 54.0307C104.825 53.4923 104.525 52.7632 104.525 52.003V18.7797C104.525 18.3711 104.407 17.9714 104.184 17.6296C103.961 17.2877 103.644 17.0186 103.271 16.8553C103.009 16.7389 102.742 16.6177 102.474 16.5108C102.175 16.3851 101.851 16.3312 101.527 16.3535C101.203 16.3758 100.889 16.4737 100.61 16.6393C100.331 16.8049 100.093 17.0337 99.9174 17.3075C99.7415 17.5814 99.6315 17.8926 99.5963 18.2166C97.4064 38.0261 86.6959 53.0626 73.8193 53.0626C60.6966 53.0626 49.8277 37.4607 47.9216 17.1047C47.8919 16.7862 47.7899 16.4788 47.6235 16.206C47.4572 15.9332 47.2309 15.7023 46.962 15.531C46.693 15.3597 46.3886 15.2525 46.0721 15.2176C45.7556 15.1828 45.4353 15.2212 45.1358 15.33L44.4571 15.5842C44.0599 15.7349 43.7178 16.0038 43.4766 16.3548C43.2353 16.7058 43.1063 17.1224 43.1068 17.549V51.9983C43.1068 52.76 42.8055 53.4906 42.2693 54.0293C41.7332 54.568 41.0059 54.8706 40.2476 54.8706V54.8706C39.8704 54.8741 39.4962 54.8025 39.1466 54.66C38.797 54.5175 38.479 54.3068 38.2108 54.0403C37.9426 53.7737 37.7295 53.4565 37.584 53.1068C37.4384 52.7572 37.3631 52.382 37.3625 52.003V22.379C37.3637 22.0064 37.266 21.6402 37.0794 21.3182C36.8928 20.9961 36.6241 20.7299 36.301 20.5469C35.9779 20.3639 35.6121 20.2708 35.2413 20.2771C34.8704 20.2834 34.5079 20.389 34.1912 20.5829C33.1964 21.2006 32.2378 21.8413 31.3155 22.505C31.0448 22.6998 30.824 22.9565 30.6714 23.2539C30.5189 23.5513 30.4389 23.8809 30.4382 24.2155V52.0125C30.4382 52.3899 30.3641 52.7636 30.2203 53.1123C30.0765 53.4609 29.8657 53.7777 29.5999 54.0444C29.3342 54.3112 29.0187 54.5227 28.6716 54.6669C28.3244 54.8111 27.9524 54.8852 27.5767 54.8849V54.8849C26.8184 54.8849 26.0912 54.5822 25.555 54.0436C25.0188 53.5049 24.7176 52.7743 24.7176 52.0125V34.7855C24.7176 32.6307 21.8797 31.8823 20.8108 33.7497C18.6635 37.5082 17.5 41.5661 17.5 45.8021C17.5 65.1792 42.0355 80.8905 72.2987 80.8905C102.562 80.8905 127.097 65.1792 127.097 45.8021C127.097 45.327 127.081 44.8518 127.052 44.3767C126.884 41.6872 122.881 41.8464 122.881 44.5358Z" fill="#373E46"/>
<path id="Vector_2" d="M101.42 127.436C101.42 146.649 87.4007 162.223 70.1064 162.223C52.8122 162.223 38.7838 146.649 38.7838 127.436C38.7838 126.459 38.82 125.492 38.8925 124.535C39.7013 113.637 45.0412 104.16 52.8027 98.4346C52.8069 98.4291 52.8127 98.4249 52.8192 98.4227C57.818 94.6898 63.878 92.6686 70.1064 92.6566C74.8068 92.6558 79.4355 93.8143 83.5862 96.0302C83.6226 96.0465 83.6581 96.0648 83.6926 96.0849C92.9723 101.055 99.7098 110.96 101.141 122.732C101.332 124.293 101.425 125.864 101.42 127.436V127.436Z" fill="#975656"/>
<path id="Vector_3" opacity="0.1" d="M93.5186 77.5797C93.3221 77.6101 93.1237 77.626 92.925 77.6272H46.5571C46.3583 77.6261 46.1599 77.6102 45.9635 77.5797C47.1692 73.2742 49.5099 69.3756 52.7383 66.2958C55.9667 63.2159 59.9631 61.069 64.3054 60.0819H75.1838C79.5248 61.0702 83.5196 63.2176 86.7467 66.2974C89.9738 69.3771 92.3134 73.2751 93.5186 77.5797V77.5797Z" fill="black"/>
<path id="Vector_4" opacity="0.1" d="M93.5186 77.5797C93.3221 77.6101 93.1237 77.626 92.925 77.6272H46.5571C46.3583 77.6261 46.1599 77.6102 45.9635 77.5797C47.1692 73.2742 49.5099 69.3756 52.7383 66.2958C55.9667 63.2159 59.9631 61.069 64.3054 60.0819H75.1838C79.5248 61.0702 83.5196 63.2176 86.7467 66.2974C89.9738 69.3771 92.3134 73.2751 93.5186 77.5797V77.5797Z" fill="black"/>
<path id="Vector_5" opacity="0.1" d="M93.5186 77.5797C93.3221 77.6101 93.1237 77.626 92.925 77.6272H46.5571C46.3583 77.6261 46.1599 77.6102 45.9635 77.5797C47.1692 73.2742 49.5099 69.3756 52.7383 66.2958C55.9667 63.2159 59.9631 61.069 64.3054 60.0819H75.1838C79.5248 61.0702 83.5196 63.2176 86.7467 66.2974C89.9738 69.3771 92.3134 73.2751 93.5186 77.5797V77.5797Z" fill="black"/>
<path id="Vector_6" d="M95.0297 75.4879C95.0213 81.7633 92.6421 87.8016 88.3729 92.3825C84.1036 96.9635 78.2626 99.7456 72.0302 100.167C65.7978 100.588 59.6386 98.6163 54.7973 94.6509C49.9559 90.6854 46.7934 85.0216 45.9487 78.8038C45.1041 72.586 46.6402 66.2779 50.2468 61.1542C53.8534 56.0305 59.2615 52.4731 65.3784 51.201C71.4952 49.9289 77.8646 51.0369 83.1996 54.301C88.5346 57.5651 92.4373 62.7421 94.1192 68.7857C94.726 70.9675 95.0323 73.2226 95.0297 75.4879V75.4879Z" fill="#975656"/>
<path id="Vector_7" d="M95.0297 75.4879C95.0213 81.7633 92.6421 87.8016 88.3729 92.3825C84.1036 96.9635 78.2626 99.7456 72.0302 100.167C65.7978 100.588 59.6386 98.6163 54.7973 94.6509C49.9559 90.6854 46.7934 85.0216 45.9487 78.8038C45.1041 72.586 46.6402 66.2779 50.2468 61.1542C53.8534 56.0305 59.2615 52.4731 65.3784 51.201C71.4952 49.9289 77.8646 51.0369 83.1996 54.301C88.5346 57.5651 92.4373 62.7421 94.1192 68.7857C94.726 70.9675 95.0323 73.2226 95.0297 75.4879V75.4879Z" fill="#975656"/>
<path id="Vector_8" d="M95.0297 75.4879C95.0213 81.7633 92.6421 87.8016 88.3729 92.3825C84.1036 96.9635 78.2626 99.7456 72.0302 100.167C65.7978 100.588 59.6386 98.6163 54.7973 94.6509C49.9559 90.6854 46.7934 85.0216 45.9487 78.8038C45.1041 72.586 46.6402 66.2779 50.2468 61.1542C53.8534 56.0305 59.2615 52.4731 65.3784 51.201C71.4952 49.9289 77.8646 51.0369 83.1996 54.301C88.5346 57.5651 92.4373 62.7421 94.1192 68.7857C94.726 70.9675 95.0323 73.2226 95.0297 75.4879V75.4879Z" fill="#975656"/>
<path id="Vector_9" d="M61.0064 75.4903C62.8362 75.4903 64.3196 74 64.3196 72.1618C64.3196 70.3235 62.8362 68.8333 61.0064 68.8333C59.1766 68.8333 57.6932 70.3235 57.6932 72.1618C57.6932 74 59.1766 75.4903 61.0064 75.4903Z" fill="#EEEFF0"/>
<path id="Vector_10" d="M61.0064 75.4903C62.8362 75.4903 64.3196 74 64.3196 72.1618C64.3196 70.3235 62.8362 68.8333 61.0064 68.8333C59.1766 68.8333 57.6932 70.3235 57.6932 72.1618C57.6932 74 59.1766 75.4903 61.0064 75.4903Z" fill="#EEEFF0"/>
<path id="Vector_11" d="M61.0064 75.4903C62.8362 75.4903 64.3196 74 64.3196 72.1618C64.3196 70.3235 62.8362 68.8333 61.0064 68.8333C59.1766 68.8333 57.6932 70.3235 57.6932 72.1618C57.6932 74 59.1766 75.4903 61.0064 75.4903Z" fill="#EEEFF0"/>
<path id="Vector_12" d="M61.2429 73.4376C62.0749 73.4376 62.7493 72.76 62.7493 71.9242C62.7493 71.0883 62.0749 70.4108 61.2429 70.4108C60.4109 70.4108 59.7365 71.0883 59.7365 71.9242C59.7365 72.76 60.4109 73.4376 61.2429 73.4376Z" fill="#373E46"/>
<path id="Vector_13" d="M61.2429 73.4376C62.0749 73.4376 62.7493 72.76 62.7493 71.9242C62.7493 71.0883 62.0749 70.4108 61.2429 70.4108C60.4109 70.4108 59.7365 71.0883 59.7365 71.9242C59.7365 72.76 60.4109 73.4376 61.2429 73.4376Z" fill="#373E46"/>
<path id="Vector_14" d="M61.2429 73.4376C62.0749 73.4376 62.7493 72.76 62.7493 71.9242C62.7493 71.0883 62.0749 70.4108 61.2429 70.4108C60.4109 70.4108 59.7365 71.0883 59.7365 71.9242C59.7365 72.76 60.4109 73.4376 61.2429 73.4376Z" fill="#373E46"/>
<path id="Vector_15" d="M61.3068 71.8576C61.4726 71.8576 61.6071 71.7226 61.6071 71.5559C61.6071 71.3893 61.4726 71.2542 61.3068 71.2542C61.1409 71.2542 61.0064 71.3893 61.0064 71.5559C61.0064 71.7226 61.1409 71.8576 61.3068 71.8576Z" fill="white"/>
<path id="Vector_16" d="M61.3068 71.8576C61.4726 71.8576 61.6071 71.7226 61.6071 71.5559C61.6071 71.3893 61.4726 71.2542 61.3068 71.2542C61.1409 71.2542 61.0064 71.3893 61.0064 71.5559C61.0064 71.7226 61.1409 71.8576 61.3068 71.8576Z" fill="white"/>
<path id="Vector_17" d="M61.3068 71.8576C61.4726 71.8576 61.6071 71.7226 61.6071 71.5559C61.6071 71.3893 61.4726 71.2542 61.3068 71.2542C61.1409 71.2542 61.0064 71.3893 61.0064 71.5559C61.0064 71.7226 61.1409 71.8576 61.3068 71.8576Z" fill="white"/>
<path id="Vector_18" d="M81.1149 75.2527C82.9447 75.2527 84.428 73.7625 84.428 71.9242C84.428 70.0859 82.9447 68.5957 81.1149 68.5957C79.2851 68.5957 77.8017 70.0859 77.8017 71.9242C77.8017 73.7625 79.2851 75.2527 81.1149 75.2527Z" fill="#EEEFF0"/>
<path id="Vector_19" d="M81.1149 75.2527C82.9447 75.2527 84.428 73.7625 84.428 71.9242C84.428 70.0859 82.9447 68.5957 81.1149 68.5957C79.2851 68.5957 77.8017 70.0859 77.8017 71.9242C77.8017 73.7625 79.2851 75.2527 81.1149 75.2527Z" fill="#EEEFF0"/>
<path id="Vector_20" d="M81.1149 75.2527C82.9447 75.2527 84.428 73.7625 84.428 71.9242C84.428 70.0859 82.9447 68.5957 81.1149 68.5957C79.2851 68.5957 77.8017 70.0859 77.8017 71.9242C77.8017 73.7625 79.2851 75.2527 81.1149 75.2527Z" fill="#EEEFF0"/>
<path id="Vector_21" d="M81.1149 73.4376C81.9468 73.4376 82.6213 72.76 82.6213 71.9242C82.6213 71.0883 81.9468 70.4108 81.1149 70.4108C80.2829 70.4108 79.6084 71.0883 79.6084 71.9242C79.6084 72.76 80.2829 73.4376 81.1149 73.4376Z" fill="#373E46"/>
<path id="Vector_22" d="M81.1149 73.4376C81.9468 73.4376 82.6213 72.76 82.6213 71.9242C82.6213 71.0883 81.9468 70.4108 81.1149 70.4108C80.2829 70.4108 79.6084 71.0883 79.6084 71.9242C79.6084 72.76 80.2829 73.4376 81.1149 73.4376Z" fill="#373E46"/>
<path id="Vector_23" d="M81.1149 73.4376C81.9468 73.4376 82.6213 72.76 82.6213 71.9242C82.6213 71.0883 81.9468 70.4108 81.1149 70.4108C80.2829 70.4108 79.6084 71.0883 79.6084 71.9242C79.6084 72.76 80.2829 73.4376 81.1149 73.4376Z" fill="#373E46"/>
<path id="Vector_24" d="M80.5142 71.6201C80.6801 71.6201 80.8145 71.485 80.8145 71.3183C80.8145 71.1517 80.6801 71.0166 80.5142 71.0166C80.3483 71.0166 80.2139 71.1517 80.2139 71.3183C80.2139 71.485 80.3483 71.6201 80.5142 71.6201Z" fill="white"/>
<path id="Vector_25" d="M80.5142 71.6201C80.6801 71.6201 80.8145 71.485 80.8145 71.3183C80.8145 71.1517 80.6801 71.0166 80.5142 71.0166C80.3483 71.0166 80.2139 71.1517 80.2139 71.3183C80.2139 71.485 80.3483 71.6201 80.5142 71.6201Z" fill="white"/>
<path id="Vector_26" d="M80.5142 71.6201C80.6801 71.6201 80.8145 71.485 80.8145 71.3183C80.8145 71.1517 80.6801 71.0166 80.5142 71.0166C80.3483 71.0166 80.2139 71.1517 80.2139 71.3183C80.2139 71.485 80.3483 71.6201 80.5142 71.6201Z" fill="white"/>
<path id="Vector_27" d="M70.9436 86.5449C73.4382 86.5449 75.4605 84.5133 75.4605 82.0071C75.4605 79.5009 73.4382 77.4693 70.9436 77.4693C68.449 77.4693 66.4267 79.5009 66.4267 82.0071C66.4267 84.5133 68.449 86.5449 70.9436 86.5449Z" fill="#C50000"/>
<path id="Vector_28" d="M70.9436 86.5449C73.4382 86.5449 75.4605 84.5133 75.4605 82.0071C75.4605 79.5009 73.4382 77.4693 70.9436 77.4693C68.449 77.4693 66.4267 79.5009 66.4267 82.0071C66.4267 84.5133 68.449 86.5449 70.9436 86.5449Z" fill="#C50000"/>
<path id="Vector_29" d="M70.9436 86.5449C73.4382 86.5449 75.4605 84.5133 75.4605 82.0071C75.4605 79.5009 73.4382 77.4693 70.9436 77.4693C68.449 77.4693 66.4267 79.5009 66.4267 82.0071C66.4267 84.5133 68.449 86.5449 70.9436 86.5449Z" fill="#C50000"/>
</g>
<g id="chaussette">
<path id="Vector_30" d="M127.868 182.942C127.87 186.175 127.039 189.354 125.456 192.169C123.873 194.985 121.592 197.34 118.834 199.007C116.455 200.461 113.779 201.354 111.007 201.621C110.413 201.68 109.808 201.709 109.2 201.709H74.5736C73.6655 201.709 72.7622 201.68 71.8635 201.618C71.0547 201.564 70.253 201.488 69.4561 201.381C67.6269 201.148 65.8159 200.789 64.0358 200.307C63.2223 200.087 62.419 199.842 61.626 199.573C59.7676 198.938 57.9583 198.166 56.2128 197.264C55.3914 196.841 54.5882 196.392 53.803 195.916C51.8914 194.761 50.0785 193.448 48.3828 191.992C47.5503 191.279 46.7479 190.531 45.9753 189.749C38.4387 182.163 34.2101 171.881 34.2196 161.163V119.111H103.78V158.744C103.779 160.084 104.27 161.377 105.159 162.375C106.048 163.374 107.272 164.008 108.597 164.157C108.796 164.176 108.997 164.19 109.2 164.19C109.808 164.19 110.413 164.218 111.007 164.275C113.778 164.545 116.453 165.439 118.834 166.889C121.588 168.557 123.867 170.912 125.449 173.724C127.032 176.536 127.865 179.711 127.868 182.942V182.942Z" fill="#C50000"/>
<path id="Vector_31" d="M103.692 107.624H34.3166C32.6043 107.624 31.2162 109.019 31.2162 110.739V120.24C31.2162 121.96 32.6043 123.354 34.3166 123.354H103.692C105.404 123.354 106.793 121.96 106.793 120.24V110.739C106.793 109.019 105.404 107.624 103.692 107.624Z" fill="#EEEFF0"/>
<path id="Vector_32" d="M110.241 187.665L107.549 186.218C107.439 186.159 107.313 186.137 107.19 186.154C107.066 186.171 106.951 186.227 106.861 186.313L104.662 188.437C104.572 188.524 104.457 188.58 104.333 188.596C104.21 188.613 104.084 188.591 103.974 188.532C103.865 188.473 103.776 188.38 103.722 188.268C103.667 188.155 103.649 188.028 103.671 187.905L104.22 184.888C104.241 184.765 104.224 184.638 104.169 184.525C104.115 184.412 104.027 184.32 103.917 184.261L101.226 182.814C101.115 182.755 101.026 182.663 100.972 182.55C100.917 182.437 100.899 182.31 100.921 182.186C100.944 182.063 101.004 181.949 101.095 181.863C101.185 181.776 101.3 181.721 101.424 181.704L104.447 181.286C104.569 181.269 104.683 181.214 104.773 181.129C104.863 181.044 104.924 180.933 104.948 180.811L105.485 177.794C105.507 177.67 105.567 177.557 105.657 177.47C105.747 177.383 105.862 177.327 105.986 177.31C106.11 177.293 106.235 177.316 106.345 177.375C106.456 177.434 106.544 177.526 106.599 177.639L107.928 180.398C107.982 180.511 108.07 180.604 108.18 180.663C108.29 180.723 108.416 180.745 108.54 180.728L111.551 180.3C111.674 180.282 111.8 180.304 111.911 180.363C112.021 180.422 112.11 180.515 112.165 180.628C112.219 180.741 112.236 180.868 112.214 180.992C112.192 181.115 112.131 181.228 112.04 181.315L109.839 183.439C109.749 183.526 109.689 183.639 109.667 183.762C109.646 183.886 109.663 184.013 109.718 184.125L111.047 186.884C111.102 186.996 111.119 187.123 111.098 187.246C111.076 187.369 111.016 187.482 110.927 187.569C110.837 187.656 110.723 187.712 110.599 187.729C110.476 187.747 110.35 187.724 110.241 187.665V187.665Z" fill="#EEEFF0"/>
<path id="Vector_33" d="M42.9554 118.33L41.3 117.434C41.2318 117.398 41.154 117.384 41.0777 117.395C41.0013 117.406 40.9302 117.44 40.8743 117.493L39.5145 118.807C39.4586 118.86 39.3875 118.894 39.3113 118.904C39.2351 118.914 39.1577 118.9 39.09 118.863C39.0223 118.827 38.9677 118.77 38.934 118.701C38.9003 118.631 38.8891 118.553 38.902 118.477L39.2355 116.612C39.2494 116.536 39.2388 116.457 39.2052 116.388C39.1716 116.318 39.1168 116.261 39.0487 116.225L37.3932 115.329C37.3248 115.293 37.2696 115.236 37.2355 115.166C37.2015 115.097 37.1903 115.018 37.2038 114.941C37.2172 114.865 37.2545 114.795 37.3102 114.741C37.366 114.687 37.4373 114.653 37.5138 114.642L39.3845 114.383C39.4605 114.373 39.5314 114.339 39.5868 114.286C39.6421 114.232 39.6789 114.162 39.6919 114.086L40.0253 112.221C40.0394 112.146 40.0768 112.076 40.1323 112.023C40.1878 111.969 40.2585 111.935 40.3346 111.924C40.4106 111.913 40.4881 111.927 40.5561 111.963C40.6241 111.999 40.6791 112.055 40.7135 112.124L41.5365 113.832C41.5702 113.902 41.625 113.959 41.693 113.995C41.761 114.031 41.8386 114.045 41.9149 114.034L43.7831 113.775C43.8596 113.764 43.9375 113.778 44.0057 113.814C44.0739 113.851 44.1288 113.908 44.1624 113.978C44.1961 114.048 44.2069 114.126 44.1931 114.203C44.1793 114.279 44.1418 114.349 44.0858 114.402L42.7236 115.716C42.6683 115.77 42.6311 115.839 42.6175 115.915C42.6039 115.991 42.6146 116.07 42.648 116.139L43.4709 117.845C43.5079 117.916 43.5206 117.998 43.5071 118.077C43.4936 118.156 43.4547 118.229 43.3962 118.284C43.3378 118.339 43.2631 118.373 43.1835 118.381C43.1039 118.389 43.0238 118.371 42.9554 118.33V118.33Z" fill="#C50000"/>
<path id="Vector_34" d="M53.4956 118.33L51.8402 117.434C51.7723 117.398 51.695 117.385 51.619 117.395C51.5431 117.406 51.4724 117.44 51.4169 117.493L50.0547 118.807C49.9991 118.861 49.9281 118.895 49.8518 118.905C49.7755 118.916 49.6979 118.902 49.6301 118.865C49.5623 118.828 49.5078 118.771 49.4745 118.701C49.4412 118.632 49.4307 118.553 49.4446 118.477L49.7757 116.612C49.7896 116.536 49.779 116.457 49.7454 116.387C49.7118 116.318 49.657 116.261 49.5888 116.225L47.9334 115.329C47.865 115.293 47.8098 115.236 47.7758 115.166C47.7419 115.096 47.731 115.017 47.7447 114.94C47.7584 114.864 47.796 114.794 47.852 114.74C47.9081 114.687 47.9797 114.652 48.0564 114.642L49.9247 114.383C50.0009 114.373 50.0719 114.339 50.1276 114.285C50.1833 114.232 50.2207 114.162 50.2345 114.086L50.5655 112.221C50.5799 112.147 50.6168 112.079 50.671 112.027C50.7253 111.974 50.7943 111.94 50.8688 111.928C50.9432 111.916 51.0194 111.928 51.087 111.961C51.1546 111.995 51.2104 112.048 51.2466 112.114L52.0696 113.823C52.1033 113.892 52.1581 113.949 52.2261 113.985C52.2941 114.022 52.3718 114.035 52.448 114.025L54.3162 113.766C54.3926 113.755 54.4706 113.768 54.5388 113.805C54.607 113.841 54.6619 113.898 54.6956 113.968C54.7292 114.038 54.74 114.117 54.7262 114.193C54.7124 114.269 54.6749 114.339 54.6189 114.393L53.2591 115.707C53.2028 115.76 53.1649 115.829 53.1513 115.906C53.1376 115.982 53.1489 116.06 53.1834 116.13L54.004 117.835C54.0451 117.906 54.0615 117.989 54.0504 118.07C54.0392 118.151 54.0014 118.226 53.9428 118.283C53.8842 118.34 53.8083 118.375 53.7272 118.384C53.6462 118.392 53.5646 118.373 53.4956 118.33Z" fill="#C50000"/>
<path id="Vector_35" d="M64.0334 118.33L62.378 117.434C62.3098 117.398 62.2321 117.384 62.1557 117.395C62.0794 117.406 62.0083 117.44 61.9524 117.493L60.5902 118.807C60.5346 118.861 60.4636 118.895 60.3873 118.905C60.311 118.916 60.2333 118.902 60.1655 118.865C60.0978 118.828 60.0433 118.771 60.01 118.701C59.9766 118.632 59.9662 118.553 59.9801 118.477L60.3112 116.612C60.3251 116.536 60.3145 116.457 60.2809 116.387C60.2473 116.318 60.1924 116.261 60.1243 116.225L58.4689 115.329C58.4004 115.293 58.3452 115.236 58.3113 115.166C58.2774 115.096 58.2664 115.017 58.2801 114.94C58.2938 114.864 58.3315 114.794 58.3875 114.74C58.4436 114.687 58.5152 114.652 58.5919 114.642L60.4601 114.383C60.5364 114.373 60.6074 114.339 60.6631 114.285C60.7187 114.232 60.7561 114.162 60.7699 114.086L61.1034 112.221C61.1167 112.145 61.1536 112.075 61.2089 112.022C61.2642 111.968 61.335 111.933 61.4111 111.922C61.4872 111.912 61.5648 111.925 61.6327 111.962C61.7006 111.998 61.7554 112.055 61.7892 112.124L62.6122 113.832C62.6459 113.902 62.7007 113.959 62.7687 113.995C62.8367 114.031 62.9143 114.045 62.9905 114.034L64.8588 113.775C64.9352 113.764 65.0132 113.778 65.0813 113.814C65.1495 113.851 65.2044 113.908 65.2381 113.978C65.2718 114.048 65.2825 114.126 65.2688 114.203C65.255 114.279 65.2174 114.349 65.1615 114.402L63.7804 115.716C63.725 115.77 63.6879 115.839 63.6743 115.915C63.6607 115.991 63.6713 116.07 63.7047 116.139L64.5277 117.845C64.5593 117.914 64.5689 117.991 64.5552 118.066C64.5414 118.141 64.5049 118.209 64.4508 118.262C64.3966 118.316 64.3274 118.35 64.2527 118.363C64.178 118.375 64.1014 118.363 64.0334 118.33V118.33Z" fill="#C50000"/>
<path id="Vector_36" d="M74.5713 118.33L72.9159 117.434C72.8477 117.398 72.7699 117.384 72.6936 117.395C72.6172 117.406 72.5461 117.44 72.4902 117.493L71.1304 118.807C71.0745 118.86 71.0034 118.894 70.9272 118.904C70.851 118.914 70.7736 118.9 70.7059 118.863C70.6382 118.827 70.5836 118.77 70.5499 118.701C70.5162 118.631 70.505 118.553 70.5179 118.477L70.8514 116.612C70.865 116.536 70.8542 116.457 70.8206 116.388C70.7871 116.318 70.7324 116.261 70.6645 116.225L69.0091 115.329C68.942 115.292 68.8882 115.234 68.8553 115.165C68.8224 115.095 68.8119 115.017 68.8255 114.941C68.8391 114.866 68.876 114.796 68.931 114.742C68.986 114.689 69.0563 114.654 69.1321 114.642L71.0004 114.383C71.0767 114.373 71.148 114.339 71.2037 114.286C71.2594 114.232 71.2967 114.163 71.3102 114.086L71.6436 112.221C71.6563 112.145 71.693 112.074 71.7485 112.019C71.804 111.965 71.8753 111.93 71.9521 111.919C72.0289 111.908 72.1071 111.922 72.1754 111.959C72.2437 111.996 72.2985 112.054 72.3318 112.124L73.1524 113.832C73.1861 113.902 73.2409 113.959 73.3089 113.995C73.3769 114.031 73.4545 114.045 73.5308 114.034L75.4014 113.775C75.4776 113.765 75.5552 113.779 75.6229 113.816C75.6906 113.852 75.7451 113.909 75.7784 113.979C75.8118 114.049 75.8223 114.127 75.8085 114.203C75.7948 114.279 75.7574 114.349 75.7017 114.402L74.3419 115.716C74.2865 115.77 74.2494 115.839 74.2358 115.915C74.2222 115.991 74.2329 116.07 74.2663 116.139L75.0892 117.845C75.1269 117.916 75.14 117.999 75.1266 118.078C75.1132 118.158 75.074 118.231 75.015 118.286C74.9561 118.342 74.8806 118.376 74.8004 118.384C74.7202 118.391 74.6397 118.372 74.5713 118.33V118.33Z" fill="#C50000"/>
<path id="Vector_37" d="M85.1091 118.33L83.4537 117.434C83.3855 117.398 83.3077 117.384 83.2314 117.395C83.155 117.406 83.0839 117.44 83.0281 117.493L81.6683 118.807C81.6123 118.86 81.5412 118.894 81.465 118.904C81.3889 118.914 81.3114 118.9 81.2437 118.863C81.176 118.827 81.1215 118.77 81.0877 118.701C81.054 118.631 81.0428 118.553 81.0558 118.477L81.3892 116.612C81.4032 116.536 81.3926 116.457 81.359 116.388C81.3254 116.318 81.2705 116.261 81.2024 116.225L79.547 115.329C79.4785 115.293 79.4233 115.236 79.3892 115.166C79.3552 115.097 79.3441 115.018 79.3575 114.941C79.3709 114.865 79.4082 114.795 79.4639 114.741C79.5197 114.687 79.591 114.653 79.6676 114.642L81.5382 114.383C81.6143 114.373 81.6852 114.339 81.7405 114.286C81.7958 114.232 81.8326 114.162 81.8456 114.086L82.1791 112.221C82.1931 112.146 82.2305 112.076 82.286 112.023C82.3415 111.969 82.4123 111.935 82.4883 111.924C82.5643 111.913 82.6418 111.927 82.7098 111.963C82.7778 111.999 82.8329 112.055 82.8673 112.124L83.6902 113.832C83.7235 113.902 83.7779 113.958 83.8455 113.995C83.9131 114.031 83.9904 114.045 84.0662 114.034L85.9369 113.775C86.0133 113.764 86.0912 113.778 86.1594 113.814C86.2276 113.851 86.2825 113.908 86.3162 113.978C86.3499 114.048 86.3606 114.126 86.3468 114.203C86.3331 114.279 86.2955 114.349 86.2395 114.402L84.8774 115.716C84.822 115.77 84.7848 115.839 84.7712 115.915C84.7577 115.991 84.7683 116.07 84.8017 116.139L85.6247 117.845C85.6616 117.916 85.6743 117.998 85.6608 118.077C85.6473 118.156 85.6084 118.229 85.55 118.284C85.4915 118.339 85.4168 118.373 85.3372 118.381C85.2576 118.389 85.1775 118.371 85.1091 118.33V118.33Z" fill="#C50000"/>
<path id="Vector_38" d="M95.6493 118.33L93.9939 117.434C93.926 117.398 93.8487 117.385 93.7727 117.395C93.6968 117.406 93.6261 117.44 93.5706 117.493L92.2085 118.807C92.1525 118.86 92.0814 118.894 92.0052 118.904C91.929 118.914 91.8516 118.9 91.7839 118.863C91.7162 118.827 91.6616 118.77 91.6279 118.701C91.5942 118.631 91.583 118.553 91.5959 118.477L91.9294 116.612C91.9434 116.536 91.9328 116.457 91.8992 116.388C91.8656 116.318 91.8107 116.261 91.7426 116.225L90.0872 115.329C90.0187 115.293 89.9635 115.236 89.9295 115.166C89.8956 115.096 89.8847 115.017 89.8984 114.94C89.9121 114.864 89.9497 114.794 90.0058 114.74C90.0618 114.687 90.1334 114.652 90.2101 114.642L92.0784 114.383C92.1546 114.373 92.2257 114.339 92.2813 114.285C92.337 114.232 92.3744 114.162 92.3882 114.086L92.7193 112.221C92.7333 112.146 92.7707 112.076 92.8262 112.023C92.8817 111.969 92.9524 111.935 93.0285 111.924C93.1045 111.913 93.182 111.927 93.25 111.963C93.318 111.999 93.3731 112.055 93.4074 112.124L94.2304 113.832C94.2641 113.902 94.3189 113.959 94.3869 113.995C94.4549 114.031 94.5326 114.045 94.6088 114.034L96.477 113.775C96.5535 113.764 96.6314 113.778 96.6996 113.814C96.7678 113.851 96.8227 113.908 96.8564 113.978C96.8901 114.048 96.9008 114.126 96.887 114.203C96.8732 114.279 96.8357 114.349 96.7797 114.402L95.4199 115.716C95.3636 115.769 95.3257 115.839 95.3121 115.915C95.2985 115.991 95.3097 116.07 95.3442 116.139L96.1649 117.845C96.204 117.916 96.2184 117.999 96.2057 118.079C96.193 118.159 96.154 118.233 96.0948 118.289C96.0356 118.344 95.9597 118.379 95.879 118.386C95.7984 118.393 95.7175 118.374 95.6493 118.33V118.33Z" fill="#C50000"/>
</g>
</g>
</svg>
