<svg width="1674" height="709" viewBox="0 0 1674 709" fill="none" xmlns="http://www.w3.org/2000/svg">
<g id="Vector">
<path d="M115.135 394.986C98.3162 394.986 85.6253 390.862 77.0628 382.614C68.5002 374.366 64.219 362.91 64.219 348.247L65.1364 338.166C65.1364 335.723 64.5248 334.501 63.3016 334.501L60.5493 336.334C53.21 348.553 45.5649 359.855 37.614 370.242C29.663 380.323 23.547 387.501 19.2657 391.778L12.8438 397.735C8.56253 401.706 5.35158 403.692 3.21095 403.692C1.07031 403.692 0 401.859 0 398.193C0 393.306 1.52902 387.349 4.58707 380.323C9.17414 370.242 15.596 356.801 23.8528 339.999C31.8037 322.892 47.8584 292.803 72.017 249.73C96.4814 206.352 120.181 168.167 143.117 135.175C166.358 101.572 184.4 78.6611 197.244 66.4419C201.831 61.8597 205.348 59.5686 207.794 59.5686C209.323 59.5686 210.088 60.7905 210.088 63.2343C210.088 63.8453 209.782 65.9837 209.17 69.6494C206.418 81.8686 195.562 104.321 176.602 137.008C138.682 198.715 111.16 248.813 94.0349 287.304C82.7202 308.993 77.0628 329.002 77.0628 347.331C77.0628 357.717 79.815 366.271 85.3195 372.991C90.824 379.406 98.4691 382.614 108.255 382.614C122.322 382.614 135.93 376.962 149.08 365.66C162.535 354.357 173.697 340.763 182.565 324.878C191.434 308.993 198.62 292.803 204.125 276.307C209.629 259.811 212.381 245.911 212.381 234.609C212.381 207.421 199.843 190.925 174.767 185.121C174.462 183.899 174.309 182.677 174.309 181.455C174.309 177.789 176.449 175.651 180.731 175.04C204.278 175.04 225.225 166.334 243.573 148.922C261.922 131.204 271.096 110.889 271.096 87.9782C271.096 75.1481 266.356 63.8453 256.876 54.07C247.396 43.9891 229.812 38.9487 204.125 38.9487C176.296 38.9487 153.82 46.5857 136.695 61.8597C119.57 77.1337 111.007 94.5461 111.007 114.097C111.007 119.595 112.077 124.636 114.218 129.218C115.441 131.662 116.053 133.648 116.053 135.175C116.053 137.008 115.135 137.924 113.301 137.924C111.772 137.924 110.395 137.619 109.172 137.008C107.032 136.091 104.432 134.869 101.374 133.342C98.3162 131.815 94.1878 127.996 88.9892 121.887C84.0963 115.777 81.6498 109.056 81.6498 101.725C81.6498 81.5632 94.0349 64.3035 118.805 49.946C143.575 35.2829 173.544 27.9514 208.712 27.9514C212.381 27.9514 216.51 28.1041 221.097 28.4096C225.99 28.7151 233.788 30.0898 244.491 32.5336C255.194 34.9774 264.521 38.3377 272.472 42.6144C280.729 46.5857 288.068 53.0008 294.49 61.8597C300.912 70.7186 304.123 81.1049 304.123 93.0187C304.123 105.543 301.065 117.152 294.949 127.843C289.138 138.23 281.187 147.089 271.096 154.42C261.31 161.446 250.913 167.25 239.904 171.833C229.201 176.415 218.039 179.928 206.418 182.372C204.278 183.288 203.207 184.204 203.207 185.121C203.207 185.732 204.125 186.496 205.959 187.412C206.877 188.023 208.253 188.787 210.088 189.703C211.923 190.62 214.981 193.063 219.262 197.035C223.849 201.006 227.825 205.435 231.188 210.323C234.858 214.905 238.069 221.32 240.821 229.568C243.573 237.816 244.95 246.522 244.95 255.687C244.95 290.817 231.8 322.892 205.501 351.913C179.507 380.628 149.386 394.986 115.135 394.986Z" fill="black"/>
<path d="M436.789 221.32C439.542 221.931 440.918 222.848 440.918 224.07C440.918 225.903 439.695 228.041 437.248 230.485C433.884 233.845 428.839 238.274 422.111 243.773C415.689 249.272 411.866 252.632 410.643 253.854L404.221 262.56C397.799 280.583 387.861 299.37 374.405 318.921C361.256 338.166 345.048 355.121 325.782 369.784C306.822 384.447 288.627 391.778 271.196 391.778C249.484 391.778 238.628 378.49 238.628 351.913C238.628 328.391 246.273 303.036 261.563 275.848C276.854 248.355 296.578 224.986 320.737 205.741C345.201 186.19 369.207 176.415 392.754 176.415C409.879 176.415 418.441 183.135 418.441 196.576C418.441 203.908 414.771 213.836 407.432 226.361C407.126 226.666 406.973 227.124 406.973 227.735C406.973 228.346 407.279 228.652 407.891 228.652C419.206 224.07 428.838 221.626 436.789 221.32ZM393.212 232.318C395.659 221.626 396.882 213.378 396.882 207.574C396.882 194.744 392.601 188.328 384.038 188.328C372.112 188.328 357.28 199.326 339.544 221.32C321.807 243.315 306.517 268.059 293.673 295.552C281.135 323.045 274.866 344.734 274.866 360.619C274.866 372.227 278.994 378.032 287.251 378.032C300.095 378.032 315.385 365.201 333.122 339.541C351.164 313.881 362.02 288.068 365.69 262.102C365.384 261.491 365.231 260.574 365.231 259.353C365.231 250.494 373.182 242.551 389.084 235.525C391.53 234.609 392.906 233.54 393.212 232.318Z" fill="black"/>
<path d="M549.474 338.166C513.694 371.769 490.148 388.571 478.833 388.571C473.634 388.571 471.035 385.821 471.035 380.323C471.035 376.962 471.799 372.838 473.328 367.951C474.857 362.758 476.692 357.717 478.833 352.829C481.279 347.636 483.573 342.901 485.713 338.625C487.854 334.348 489.995 330.377 492.135 326.711C494.276 323.045 495.346 321.06 495.346 320.754C499.933 312.506 506.814 301.051 515.988 286.388C525.162 271.419 532.501 259.2 538.006 249.73C543.51 239.955 546.263 233.998 546.263 231.859C546.263 230.332 545.498 229.568 543.969 229.568L537.547 231.859C523.48 241.94 506.661 257.672 487.089 279.056C467.518 300.134 451.463 318.768 438.925 334.959L420.118 358.786C416.143 364.59 412.626 369.325 409.568 372.991C406.51 376.657 402.076 380.17 396.266 383.53C390.761 387.196 385.104 389.029 379.293 389.029C375.012 389.029 372.871 387.807 372.871 385.363C372.871 382.919 375.777 375.893 381.587 364.285C387.397 352.371 393.207 341.068 399.018 330.377L407.733 314.797L452.686 235.983C457.274 228.346 460.943 222.542 463.695 218.571C466.753 214.294 470.882 209.101 476.081 202.992C481.279 196.576 486.784 191.841 492.594 188.787C498.71 185.732 505.132 183.899 511.86 183.288C514.306 183.288 515.529 184.357 515.529 186.496C515.529 188.328 515.071 189.856 514.153 191.078C507.12 202.075 496.264 220.251 481.585 245.606C467.212 270.961 458.038 287.457 454.063 295.094C453.145 296.927 452.686 298.301 452.686 299.218C452.686 299.829 452.992 300.134 453.604 300.134C454.215 300.134 455.744 299.218 458.191 297.385C464.001 290.664 471.493 282.264 480.668 272.183C490.148 262.102 506.049 246.981 528.373 226.819C550.697 206.352 569.045 192.605 583.418 185.579C586.782 184.052 589.993 183.288 593.051 183.288C597.332 183.288 599.473 185.732 599.473 190.62C597.026 204.977 585.253 229.568 564.152 264.393C540.911 302.578 529.291 325.184 529.291 332.21C529.291 334.653 530.361 335.875 532.501 335.875C534.03 335.875 535.712 335.417 537.547 334.501C539.688 333.279 541.981 331.751 544.428 329.918C546.874 327.78 548.862 325.947 550.391 324.42C552.226 322.892 554.519 320.907 557.272 318.463C560.024 315.714 561.706 314.034 562.317 313.423C575.161 300.592 592.133 282.111 613.234 257.978C614.151 257.061 614.916 256.603 615.527 256.603C616.139 256.603 616.445 257.214 616.445 258.436C616.445 264.24 614.151 269.892 609.564 275.39C586.935 300.44 566.905 321.365 549.474 338.166Z" fill="black"/>
<path d="M723.281 338.166C687.501 371.769 663.954 388.571 652.64 388.571C647.441 388.571 644.842 385.821 644.842 380.323C644.842 376.962 645.606 372.838 647.135 367.951C648.664 362.758 650.499 357.717 652.64 352.829C655.086 347.636 657.38 342.901 659.52 338.625C661.661 334.348 663.802 330.377 665.942 326.711C668.083 323.045 669.153 321.06 669.153 320.754C673.74 312.506 680.621 301.051 689.795 286.388C698.969 271.419 706.308 259.2 711.813 249.73C717.317 239.955 720.07 233.998 720.07 231.859C720.07 230.332 719.305 229.568 717.776 229.568L711.354 231.859C697.287 241.94 680.468 257.672 660.896 279.056C641.325 300.134 625.27 318.768 612.732 334.959L593.925 358.786C589.95 364.59 586.433 369.325 583.375 372.991C580.317 376.657 575.883 380.17 570.072 383.53C564.568 387.196 558.911 389.029 553.1 389.029C548.819 389.029 546.678 387.807 546.678 385.363C546.678 382.919 549.584 375.893 555.394 364.285C561.204 352.371 567.014 341.068 572.825 330.377L581.54 314.797L626.493 235.983C631.08 228.346 634.75 222.542 637.502 218.571C640.56 214.294 644.689 209.101 649.888 202.992C655.086 196.576 660.591 191.841 666.401 188.787C672.517 185.732 678.939 183.899 685.667 183.288C688.113 183.288 689.336 184.357 689.336 186.496C689.336 188.328 688.878 189.856 687.96 191.078C680.927 202.075 670.071 220.251 655.392 245.606C641.019 270.961 631.845 287.457 627.87 295.094C626.952 296.927 626.493 298.301 626.493 299.218C626.493 299.829 626.799 300.134 627.411 300.134C628.022 300.134 629.551 299.218 631.998 297.385C637.808 290.664 645.3 282.264 654.474 272.183C663.954 262.102 679.856 246.981 702.18 226.819C724.504 206.352 742.852 192.605 757.225 185.579C760.589 184.052 763.8 183.288 766.858 183.288C771.139 183.288 773.28 185.732 773.28 190.62C770.833 204.977 759.06 229.568 737.959 264.393C714.718 302.578 703.097 325.184 703.097 332.21C703.097 334.653 704.168 335.875 706.308 335.875C707.837 335.875 709.519 335.417 711.354 334.501C713.495 333.279 715.788 331.751 718.235 329.918C720.681 327.78 722.669 325.947 724.198 324.42C726.033 322.892 728.326 320.907 731.079 318.463C733.831 315.714 735.513 314.034 736.124 313.423C748.968 300.592 765.94 282.111 787.041 257.978C787.958 257.061 788.723 256.603 789.334 256.603C789.946 256.603 790.252 257.214 790.252 258.436C790.252 264.24 787.958 269.892 783.371 275.39C760.742 300.44 740.711 321.365 723.281 338.166Z" fill="black"/>
<path d="M869.565 227.277C873.235 219.64 875.07 212.92 875.07 207.115C875.07 202.228 873.541 199.784 870.483 199.784C868.648 199.784 866.507 200.395 864.061 201.617C861.92 202.533 860.238 203.602 859.015 204.824L856.721 206.657C847.241 214.905 835.315 230.026 820.942 252.021C806.875 273.71 799.842 287.609 799.842 293.719C799.842 294.941 800.147 295.552 800.759 295.552C802.594 295.552 806.569 294.025 812.685 290.97C819.107 287.915 828.129 280.736 839.749 269.433C851.676 258.131 861.614 244.079 869.565 227.277ZM848.923 332.21C865.131 317.241 888.372 292.497 918.647 257.978C919.564 257.061 920.329 256.603 920.94 256.603C921.552 256.603 921.858 257.214 921.858 258.436C921.858 264.24 919.564 269.892 914.977 275.39C892.348 300.44 872.317 321.365 854.886 338.166C842.043 350.997 826.752 363.369 809.016 375.282C791.279 386.891 776.6 392.695 764.98 392.695C750.913 392.695 743.879 382.919 743.879 363.369C743.879 330.988 755.806 297.079 779.659 261.644C803.817 226.208 831.645 202.228 863.143 189.703C876.293 184.204 888.219 181.455 898.922 181.455C910.849 181.455 916.812 186.19 916.812 195.66C916.812 213.378 904.274 233.692 879.198 256.603C854.122 279.514 825.988 296.927 794.796 308.84C793.573 309.146 792.502 310.215 791.585 312.048C786.998 324.573 784.704 335.723 784.704 345.498C784.704 356.495 788.833 361.994 797.089 361.994C810.239 361.994 827.517 352.066 848.923 332.21Z" fill="black"/>
<path d="M1128.28 194.744C1126.44 193.827 1125.52 192.758 1125.52 191.536C1125.52 189.703 1127.21 188.787 1130.57 188.787H1144.33C1176.13 137.466 1202.13 99.892 1222.31 76.0645C1243.41 51.6261 1264.36 33.4501 1285.15 21.5363C1305.95 9.31713 1322 3.20753 1333.32 3.20753C1340.66 3.20753 1344.33 6.41507 1344.33 12.8302C1344.33 26.8822 1336.99 41.2398 1322.31 55.9028C1307.94 70.2604 1295.7 79.5776 1285.61 83.8543C1283.78 84.4652 1282.55 84.7707 1281.94 84.7707C1280.72 84.7707 1280.11 84.007 1280.11 82.4796C1280.11 81.5632 1280.57 80.3412 1281.48 78.8139C1299.22 52.8481 1308.09 35.5884 1308.09 27.035C1308.09 24.8966 1307.17 23.8274 1305.34 23.8274C1301.67 23.8274 1295.55 27.1877 1286.99 33.9083C1266.19 49.4878 1229.8 101.114 1177.82 188.787H1213.14C1217.42 188.787 1219.56 189.398 1219.56 190.62C1219.56 192.147 1218.33 193.827 1215.89 195.66C1213.75 197.493 1212.07 198.409 1210.84 198.409H1178.27C1173.99 198.409 1171.85 199.478 1171.85 201.617C1171.85 202.533 1172.01 205.13 1172.31 209.407C1172.92 213.683 1173.23 217.044 1173.23 219.487C1173.23 247.897 1164.51 282.111 1147.08 322.129C1129.96 361.841 1107.63 400.026 1080.11 436.684C1064.21 457.762 1049.53 475.174 1036.08 488.921C1022.62 502.667 1012.53 511.679 1005.8 515.956C998.767 520.538 993.569 522.829 990.205 522.829C985.924 522.829 983.783 519.927 983.783 514.123C983.783 486.019 1012.99 420.493 1071.4 317.547C1071.4 317.241 1074.3 311.742 1080.11 301.051C1085.92 290.359 1094.33 275.085 1105.34 255.229C1116.65 235.067 1127.97 215.822 1139.28 197.493L1128.28 194.744ZM1160.84 232.318C1160.84 228.041 1160.38 224.07 1159.47 220.404C1111.15 303.494 1077.51 365.049 1058.55 405.067C1041.12 441.113 1032.41 462.191 1032.41 468.301C1032.41 469.523 1032.86 470.134 1033.78 470.134C1038.06 470.134 1048.61 460.206 1065.43 440.35C1083.17 419.577 1103.51 386.738 1126.44 341.832C1149.38 296.927 1160.84 260.422 1160.84 232.318Z" fill="black"/>
<path d="M1296.32 227.277C1299.99 219.64 1301.83 212.92 1301.83 207.115C1301.83 202.228 1300.3 199.784 1297.24 199.784C1295.41 199.784 1293.27 200.395 1290.82 201.617C1288.68 202.533 1287 203.602 1285.77 204.824L1283.48 206.657C1274 214.905 1262.07 230.026 1247.7 252.021C1233.63 273.71 1226.6 287.609 1226.6 293.719C1226.6 294.941 1226.91 295.552 1227.52 295.552C1229.35 295.552 1233.33 294.025 1239.44 290.97C1245.87 287.915 1254.89 280.736 1266.51 269.433C1278.43 258.131 1288.37 244.079 1296.32 227.277ZM1275.68 332.21C1291.89 317.241 1315.13 292.497 1345.41 257.978C1346.32 257.061 1347.09 256.603 1347.7 256.603C1348.31 256.603 1348.62 257.214 1348.62 258.436C1348.62 264.24 1346.32 269.892 1341.74 275.39C1319.11 300.44 1299.08 321.365 1281.65 338.166C1268.8 350.997 1253.51 363.369 1235.77 375.282C1218.04 386.891 1203.36 392.695 1191.74 392.695C1177.67 392.695 1170.64 382.919 1170.64 363.369C1170.64 330.988 1182.56 297.079 1206.42 261.644C1230.58 226.208 1258.4 202.228 1289.9 189.703C1303.05 184.204 1314.98 181.455 1325.68 181.455C1337.61 181.455 1343.57 186.19 1343.57 195.66C1343.57 213.378 1331.03 233.692 1305.96 256.603C1280.88 279.514 1252.75 296.927 1221.55 308.84C1220.33 309.146 1219.26 310.215 1218.34 312.048C1213.76 324.573 1211.46 335.723 1211.46 345.498C1211.46 356.495 1215.59 361.994 1223.85 361.994C1237 361.994 1254.28 352.066 1275.68 332.21ZM1349.53 118.679C1349.23 117.457 1348.77 116.846 1348.16 116.846L1345.41 118.679C1335.31 128.76 1323.69 137.161 1310.54 143.881C1297.39 150.296 1288.22 153.504 1283.02 153.504C1280.88 153.504 1279.81 152.893 1279.81 151.671L1281.65 147.547C1284.7 145.103 1289.29 140.521 1295.41 133.8C1301.52 127.08 1306.87 121.123 1311.46 115.93L1318.34 107.682C1320.18 104.932 1323.08 103.558 1327.06 103.558H1377.06C1379.5 103.558 1380.73 104.627 1380.73 106.765C1380.73 107.071 1380.42 109.515 1379.81 114.097C1379.2 118.679 1378.58 124.636 1377.97 131.967C1377.36 138.993 1377.06 145.561 1377.06 151.671C1377.06 154.726 1376.14 156.253 1374.3 156.253C1369.72 156.253 1364.82 151.824 1359.62 142.965C1354.43 133.8 1351.06 125.705 1349.53 118.679Z" fill="black"/>
<path d="M1381.69 313.423C1394.54 300.592 1411.51 282.111 1432.61 257.978C1433.53 257.061 1434.29 256.603 1434.9 256.603C1435.51 256.603 1435.82 257.214 1435.82 258.436C1435.82 264.24 1433.53 269.892 1428.94 275.39C1406.31 300.44 1386.28 321.365 1368.85 338.166C1332.15 373.602 1307.84 391.32 1295.92 391.32C1291.63 391.32 1289.49 388.571 1289.49 383.072C1289.49 376.657 1291.94 367.034 1296.83 354.204C1301.73 341.374 1306.62 330.071 1311.51 320.296L1318.85 306.091C1325.88 293.566 1337.5 272.183 1353.71 241.94C1369.92 211.698 1385.52 183.135 1400.5 156.253C1415.79 129.371 1430.16 105.085 1443.62 83.396H1407.38C1404.32 83.396 1402.79 82.6323 1402.79 81.1049C1402.79 79.5775 1404.02 78.0501 1406.46 76.5228C1408.91 74.9954 1411.51 74.2317 1414.26 74.2317C1420.99 74.2317 1432.76 74.0789 1449.58 73.7734C1464.57 50.2515 1477.41 31.6172 1488.11 17.8706C1497.59 5.95686 1504.17 0 1507.84 0C1509.98 0 1511.05 1.37466 1511.05 4.12398C1511.05 10.5391 1505.24 24.2857 1493.62 45.3638L1478.02 73.7734H1525.27C1528.02 73.7734 1529.4 74.5371 1529.4 76.0645C1529.4 80.9522 1524.96 83.396 1516.09 83.396H1472.98C1402.33 217.196 1365.18 287.304 1361.51 293.719C1348.67 317.241 1342.24 332.515 1342.24 339.541C1342.24 341.679 1343.01 342.749 1344.54 342.749C1348.82 342.749 1361.2 332.973 1381.69 313.423Z" fill="black"/>
<path d="M1515.37 227.277C1519.04 219.64 1520.88 212.92 1520.88 207.115C1520.88 202.228 1519.35 199.784 1516.29 199.784C1514.46 199.784 1512.32 200.395 1509.87 201.617C1507.73 202.533 1506.05 203.602 1504.82 204.824L1502.53 206.657C1493.05 214.905 1481.12 230.026 1466.75 252.021C1452.68 273.71 1445.65 287.609 1445.65 293.719C1445.65 294.941 1445.96 295.552 1446.57 295.552C1448.4 295.552 1452.38 294.025 1458.49 290.97C1464.92 287.915 1473.94 280.736 1485.56 269.433C1497.48 258.131 1507.42 244.079 1515.37 227.277ZM1494.73 332.21C1510.94 317.241 1534.18 292.497 1564.46 257.978C1565.37 257.061 1566.14 256.603 1566.75 256.603C1567.36 256.603 1567.67 257.214 1567.67 258.436C1567.67 264.24 1565.37 269.892 1560.79 275.39C1538.16 300.44 1518.13 321.365 1500.7 338.166C1487.85 350.997 1472.56 363.369 1454.82 375.282C1437.09 386.891 1422.41 392.695 1410.79 392.695C1396.72 392.695 1389.69 382.919 1389.69 363.369C1389.69 330.988 1401.61 297.079 1425.47 261.644C1449.63 226.208 1477.45 202.228 1508.95 189.703C1522.1 184.204 1534.03 181.455 1544.73 181.455C1556.66 181.455 1562.62 186.19 1562.62 195.66C1562.62 213.378 1550.08 233.692 1525.01 256.603C1499.93 279.514 1471.8 296.927 1440.6 308.84C1439.38 309.146 1438.31 310.215 1437.39 312.048C1432.81 324.573 1430.51 335.723 1430.51 345.498C1430.51 356.495 1434.64 361.994 1442.9 361.994C1456.05 361.994 1473.33 352.066 1494.73 332.21Z" fill="black"/>
<path d="M1629.18 330.377C1623.68 345.345 1614.96 358.023 1603.04 368.409C1591.11 378.49 1579.95 385.363 1569.55 389.029C1559.46 392.695 1550.29 394.528 1542.03 394.528C1519.71 394.528 1508.54 385.821 1508.54 368.409C1508.54 350.691 1518.33 334.653 1537.9 320.296C1547.08 313.575 1557.01 309.146 1567.72 307.007C1569.25 307.007 1570.01 307.618 1570.01 308.84C1570.01 309.451 1569.7 310.062 1569.09 310.673C1561.45 316.477 1554.11 325.489 1547.07 337.708C1540.35 349.927 1536.98 360.619 1536.98 369.784C1536.98 378.948 1540.81 383.53 1548.45 383.53C1554.57 383.53 1560.53 381.086 1566.34 376.199C1572.46 371.006 1577.04 365.812 1580.1 360.619L1584.69 353.288C1590.81 343.512 1595.85 327.933 1599.83 306.549C1604.11 285.166 1606.86 266.226 1608.08 249.73L1609.46 224.986C1609.46 222.542 1609 221.32 1608.08 221.32L1606.25 222.237L1560.84 275.39C1557.47 279.361 1555.18 281.347 1553.96 281.347C1552.43 281.347 1551.66 280.278 1551.66 278.14C1551.66 274.168 1552.73 271.114 1554.87 268.975L1559 263.935C1593.86 224.833 1613.74 201.159 1618.63 192.911C1623.22 185.885 1629.95 179.775 1638.82 174.582C1647.38 169.694 1657.47 167.25 1669.09 167.25C1672.15 167.25 1673.68 168.472 1673.68 170.916C1673.68 172.444 1672.45 173.818 1670.01 175.04C1669.09 175.346 1667.87 176.109 1666.34 177.331C1665.12 178.248 1662.67 180.691 1659 184.663C1655.64 188.634 1652.58 193.216 1649.83 198.409C1647.07 203.602 1644.63 210.934 1642.49 220.404C1640.35 229.568 1639.28 239.802 1639.28 251.105C1639.28 286.235 1635.91 312.659 1629.18 330.377Z" fill="black"/>
<path d="M32.8067 617.479C33.6874 616.746 34.8617 615.72 36.3295 614.4C37.9442 612.934 40.9533 610.001 45.3569 605.602C49.7605 601.057 53.9439 596.438 57.9071 591.745C62.0171 586.907 66.4941 580.968 71.3381 573.93C76.3288 566.892 80.5856 559.927 84.1085 553.035C84.2552 552.742 84.3286 552.448 84.3286 552.155L84.1085 551.495C83.081 550.909 81.9066 550.616 80.5856 550.616C74.2738 550.616 66.4207 555.308 57.0264 564.692C47.7789 574.076 39.8525 584.194 33.2471 595.045C26.7885 605.749 23.5591 613.447 23.5591 618.139C23.5591 620.192 24.3664 621.218 25.9811 621.218C27.7425 621.218 30.0178 619.972 32.8067 617.479ZM81.4664 607.802C87.6314 601.643 95.7779 592.772 105.906 581.188C106.347 580.748 106.714 580.528 107.007 580.528C107.301 580.528 107.448 580.822 107.448 581.408C107.448 584.194 106.347 586.907 104.145 589.546C93.2826 601.57 83.6681 611.614 75.3013 619.679C57.9806 635.808 46.6046 643.873 41.1735 643.873C39.1185 643.873 38.091 642.773 38.091 640.573C38.091 637.787 39.4855 633.388 42.2744 627.377C45.0634 621.365 47.9257 616.013 50.8614 611.321L55.0448 604.282C55.6319 603.549 55.9255 602.889 55.9255 602.303C55.9255 602.01 55.7787 601.863 55.4852 601.863C54.898 601.863 54.0907 602.376 53.0632 603.403C48.5128 608.681 43.3019 614.107 37.4304 619.679C31.559 625.251 26.7885 629.576 23.1188 632.655L17.8345 637.054C11.963 641.6 7.55944 643.873 4.62372 643.873L3.74304 643.653C1.24768 643.506 0 641.307 0 637.054C0 625.91 3.88982 613.227 11.6695 599.004C19.596 584.634 29.7976 572.17 42.2744 561.613C54.7512 551.056 66.7877 545.777 78.3838 545.777C79.5581 545.777 80.659 545.923 81.6865 546.217C82.714 546.363 83.4479 546.51 83.8883 546.657C84.4754 546.803 84.9892 547.023 85.4296 547.316L86.0901 547.536C86.3837 547.536 86.7506 547.316 87.191 546.877C114.346 497.902 135.19 464.104 149.722 445.482C154.126 439.616 157.281 436.684 159.19 436.684C159.924 436.684 160.291 437.27 160.291 438.443C160.291 441.523 157.942 447.828 153.245 457.359C130.64 498.708 114.787 527.375 105.686 543.357C89.3928 572.39 79.4847 589.839 75.9619 595.704C68.7693 608.021 65.173 615.5 65.173 618.139C65.173 619.165 65.6134 619.679 66.4941 619.679C67.2281 619.679 68.0354 619.459 68.9161 619.019C69.9436 618.432 71.0445 617.626 72.2188 616.599C73.3931 615.573 74.4206 614.62 75.3013 613.74C76.3288 612.86 77.5031 611.761 78.8242 610.441C80.1453 609.121 81.026 608.241 81.4664 607.802Z" fill="black"/>
<path d="M145.559 566.452C147.321 562.786 148.201 559.56 148.201 556.774C148.201 554.428 147.467 553.255 146 553.255C145.119 553.255 144.091 553.548 142.917 554.135C141.889 554.575 141.082 555.088 140.495 555.674L139.394 556.554C134.844 560.513 129.119 567.771 122.22 578.329C115.468 588.74 112.092 595.411 112.092 598.344C112.092 598.93 112.239 599.224 112.532 599.224C113.413 599.224 115.321 598.49 118.257 597.024C121.339 595.558 125.67 592.112 131.247 586.687C136.972 581.261 141.743 574.516 145.559 566.452ZM135.651 616.819C143.431 609.634 154.587 597.757 169.118 581.188C169.559 580.748 169.926 580.528 170.219 580.528C170.513 580.528 170.66 580.822 170.66 581.408C170.66 584.194 169.559 586.907 167.357 589.546C156.495 601.57 146.88 611.614 138.513 619.679C132.348 625.837 125.009 631.776 116.495 637.494C107.982 643.066 100.936 645.852 95.3583 645.852C88.6061 645.852 85.23 641.16 85.23 631.776C85.23 616.233 90.9547 599.957 102.404 582.948C114 565.938 127.358 554.428 142.477 548.416C148.788 545.777 154.513 544.457 159.651 544.457C165.375 544.457 168.238 546.73 168.238 551.275C168.238 559.78 162.219 569.531 150.183 580.528C138.146 591.526 124.642 599.883 109.67 605.602C109.083 605.749 108.569 606.262 108.129 607.142C105.927 613.154 104.826 618.506 104.826 623.198C104.826 628.476 106.808 631.116 110.771 631.116C117.083 631.116 125.376 626.35 135.651 616.819Z" fill="black"/>
<path d="M219.495 550.836C218.614 550.396 218.174 549.882 218.174 549.296C218.174 548.416 218.981 547.976 220.596 547.976H227.201C242.467 523.342 254.944 505.307 264.632 493.87C274.76 482.139 284.815 473.415 294.796 467.696C304.777 461.831 312.484 458.898 317.915 458.898C321.438 458.898 323.199 460.438 323.199 463.517C323.199 470.262 319.676 477.154 312.631 484.192C305.732 491.084 299.86 495.556 295.016 497.609C294.135 497.902 293.548 498.049 293.255 498.049C292.668 498.049 292.374 497.682 292.374 496.949C292.374 496.509 292.594 495.922 293.035 495.189C301.548 482.726 305.805 474.441 305.805 470.335C305.805 469.309 305.365 468.796 304.484 468.796C302.723 468.796 299.787 470.409 295.677 473.635C285.695 481.113 268.228 505.893 243.274 547.976H260.228C262.283 547.976 263.31 548.27 263.31 548.856C263.31 549.589 262.723 550.396 261.549 551.275C260.521 552.155 259.714 552.595 259.127 552.595H243.494C241.439 552.595 240.412 553.108 240.412 554.135C240.412 554.575 240.485 555.821 240.632 557.874C240.925 559.927 241.072 561.54 241.072 562.713C241.072 576.349 236.889 592.772 228.522 611.98C220.302 631.042 209.587 649.371 196.376 666.967C188.743 677.084 181.697 685.442 175.239 692.041C168.78 698.639 163.936 702.965 160.707 705.017C157.331 707.217 154.835 708.317 153.221 708.317C151.166 708.317 150.138 706.924 150.138 704.138C150.138 690.648 164.156 659.195 192.192 609.781C192.192 609.634 193.587 606.995 196.376 601.863C199.165 596.731 203.201 589.399 208.486 579.868C213.917 570.191 219.348 560.953 224.779 552.155L219.495 550.836ZM235.127 568.871C235.127 566.818 234.907 564.912 234.467 563.153C211.275 603.036 195.128 632.582 186.027 651.791C177.661 669.093 173.477 679.211 173.477 682.143C173.477 682.73 173.697 683.023 174.138 683.023C176.193 683.023 181.257 678.257 189.33 668.726C197.844 658.756 207.605 642.993 218.614 621.438C229.623 599.883 235.127 582.361 235.127 568.871Z" fill="black"/>
<path d="M269.993 619.679C252.819 635.808 241.81 643.873 236.966 643.873C234.471 643.873 233.223 642.186 233.223 638.814C233.223 635.441 234.544 630.529 237.186 624.078C239.829 617.626 242.471 611.98 245.113 607.142L249.076 600.103C260.232 580.602 268.672 566.598 274.397 558.094C276.892 554.428 280.048 551.349 283.865 548.856C287.828 546.217 291.497 544.897 294.873 544.897C296.048 544.897 296.635 545.41 296.635 546.437C296.635 547.17 296.121 548.563 295.094 550.616C293.332 553.841 289.002 561.54 282.103 573.71C275.204 585.88 271.094 593.212 269.773 595.704C263.755 606.262 260.746 613.3 260.746 616.819C260.746 618.139 261.186 618.799 262.067 618.799C263.535 618.799 268.232 615.133 276.158 607.802C282.323 601.643 290.47 592.772 300.598 581.188C301.038 580.748 301.405 580.528 301.699 580.528C301.993 580.528 302.139 580.822 302.139 581.408C302.139 584.194 301.038 586.907 298.837 589.546C287.974 601.57 278.36 611.614 269.993 619.679ZM299.277 532.36C295.607 532.36 293.773 530.161 293.773 525.762C293.773 521.656 295.314 517.55 298.396 513.445C301.479 509.193 304.855 507.066 308.525 507.066C312.928 507.066 315.13 509.559 315.13 514.545C315.13 518.65 313.442 522.683 310.066 526.642C306.69 530.454 303.093 532.36 299.277 532.36Z" fill="black"/>
<path d="M353.362 619.679C336.188 635.808 324.885 643.873 319.454 643.873C316.959 643.873 315.711 642.553 315.711 639.914C315.711 638.301 316.078 636.321 316.812 633.975C317.546 631.482 318.427 629.063 319.454 626.717C320.629 624.224 321.73 621.951 322.757 619.898C323.785 617.846 324.812 615.939 325.84 614.18C326.867 612.42 327.381 611.467 327.381 611.321C329.583 607.362 332.885 601.863 337.289 594.825C341.693 587.64 345.215 581.775 347.858 577.229C350.5 572.537 351.821 569.678 351.821 568.651C351.821 567.918 351.454 567.551 350.72 567.551L347.637 568.651C340.885 573.49 332.812 581.041 323.418 591.306C314.023 601.423 306.317 610.368 300.299 618.139L291.271 629.576C289.363 632.362 287.675 634.635 286.207 636.394C284.739 638.154 282.611 639.84 279.822 641.453C277.18 643.213 274.464 644.093 271.676 644.093C269.621 644.093 268.593 643.506 268.593 642.333C268.593 641.16 269.987 637.787 272.776 632.215C275.565 626.497 278.354 621.072 281.143 615.94L285.327 608.461L306.904 570.631C309.106 566.965 310.867 564.179 312.188 562.273C313.656 560.22 315.638 557.727 318.133 554.795C320.629 551.715 323.271 549.443 326.06 547.976C328.996 546.51 332.078 545.63 335.307 545.337C336.482 545.337 337.069 545.85 337.069 546.877C337.069 547.756 336.849 548.489 336.408 549.076C333.032 554.355 327.821 563.079 320.776 575.25C313.877 587.42 309.473 595.338 307.565 599.004C307.124 599.883 306.904 600.543 306.904 600.983C306.904 601.276 307.051 601.423 307.344 601.423C307.638 601.423 308.372 600.983 309.546 600.103C312.335 596.878 315.932 592.845 320.335 588.006C324.886 583.168 332.518 575.909 343.234 566.232C353.949 556.408 362.756 549.809 369.655 546.437C371.27 545.703 372.811 545.337 374.279 545.337C376.334 545.337 377.362 546.51 377.362 548.856C376.187 555.748 370.536 567.551 360.408 584.267C349.252 602.596 343.674 613.447 343.674 616.819C343.674 617.992 344.188 618.579 345.215 618.579C345.949 618.579 346.757 618.359 347.637 617.919C348.665 617.332 349.766 616.599 350.94 615.72C352.114 614.693 353.068 613.813 353.802 613.08C354.683 612.347 355.784 611.394 357.105 610.221C358.426 608.901 359.233 608.095 359.527 607.802C365.692 601.643 373.839 592.772 383.967 581.188C384.407 580.748 384.774 580.528 385.068 580.528C385.361 580.528 385.508 580.822 385.508 581.408C385.508 584.194 384.407 586.907 382.206 589.546C371.343 601.57 361.729 611.614 353.362 619.679Z" fill="black"/>
<path d="M432.097 617.479C432.978 616.746 434.152 615.72 435.62 614.4C437.234 612.934 440.243 610.001 444.647 605.602C449.051 601.057 453.234 596.438 457.197 591.745C461.307 586.907 465.784 580.968 470.628 573.93C475.619 566.892 479.876 559.927 483.399 553.035C483.545 552.742 483.619 552.448 483.619 552.155L483.399 551.495C482.371 550.909 481.197 550.616 479.876 550.616C473.564 550.616 465.711 555.308 456.316 564.692C447.069 574.076 439.142 584.194 432.537 595.045C426.078 605.749 422.849 613.447 422.849 618.139C422.849 620.192 423.657 621.218 425.271 621.218C427.033 621.218 429.308 619.972 432.097 617.479ZM480.756 607.802C486.921 601.643 495.068 592.772 505.196 581.188C505.637 580.748 506.004 580.528 506.297 580.528C506.591 580.528 506.738 580.822 506.738 581.408C506.738 584.194 505.637 586.907 503.435 589.546C492.573 601.57 482.958 611.614 474.591 619.679C457.271 635.808 445.895 643.873 440.464 643.873C438.409 643.873 437.381 642.773 437.381 640.573C437.381 637.787 438.776 633.388 441.565 627.377C444.353 621.365 447.216 616.013 450.151 611.321L454.335 604.282C454.922 603.549 455.216 602.889 455.216 602.303C455.216 602.01 455.069 601.863 454.775 601.863C454.188 601.863 453.381 602.376 452.353 603.403C447.803 608.681 442.592 614.107 436.721 619.679C430.849 625.251 426.079 629.576 422.409 632.655L417.125 637.054C411.253 641.6 406.849 643.873 403.914 643.873L403.033 643.653C400.538 643.506 399.29 641.307 399.29 637.054C399.29 625.91 403.18 613.227 410.96 599.004C418.886 584.634 429.088 572.17 441.565 561.613C454.041 551.056 466.078 545.777 477.674 545.777C478.848 545.777 479.949 545.923 480.977 546.217C482.004 546.363 482.738 546.51 483.178 546.657C483.766 546.803 484.279 547.023 484.72 547.316L485.38 547.536C485.674 547.536 486.041 547.316 486.481 546.877C513.637 497.902 534.48 464.104 549.012 445.482C553.416 439.616 556.572 436.684 558.48 436.684C559.214 436.684 559.581 437.27 559.581 438.443C559.581 441.523 557.232 447.828 552.535 457.359C529.93 498.708 514.077 527.375 504.976 543.357C488.683 572.39 478.775 589.839 475.252 595.704C468.059 608.021 464.463 615.5 464.463 618.139C464.463 619.165 464.904 619.679 465.784 619.679C466.518 619.679 467.325 619.459 468.206 619.019C469.234 618.432 470.335 617.626 471.509 616.599C472.683 615.573 473.711 614.62 474.591 613.74C475.619 612.86 476.793 611.761 478.114 610.441C479.435 609.121 480.316 608.241 480.756 607.802Z" fill="black"/>
<path d="M571.931 477.374C568.555 484.119 564.592 489.837 560.042 494.529C555.638 499.075 552.115 502.008 549.473 503.327L545.29 505.087C544.115 505.38 543.381 505.527 543.088 505.527C542.207 505.527 541.767 505.087 541.767 504.207L542.207 502.448C543.969 499.662 545.877 496.362 547.932 492.55C550.134 488.738 551.822 485.585 552.996 483.092L554.977 479.353L555.198 478.913C555.344 478.62 555.638 478.18 556.078 477.594C556.666 476.86 557.399 476.201 558.28 475.614C559.308 475.028 560.776 474.514 562.684 474.075C564.739 473.635 567.014 473.415 569.509 473.415C571.564 473.415 572.592 474.075 572.592 475.394C572.592 475.834 572.372 476.494 571.931 477.374Z" fill="black"/>
<path d="M579.12 627.157C566.937 638.301 558.57 643.873 554.019 643.873C551.964 643.873 550.937 642.7 550.937 640.353C550.937 637.421 552.185 632.949 554.68 626.937C557.322 620.925 559.964 615.646 562.606 611.101L566.57 604.282C567.157 603.256 567.45 602.596 567.45 602.303C567.45 602.01 567.304 601.863 567.01 601.863C566.423 601.863 565.322 602.669 563.707 604.282C559.304 609.121 554.239 614.327 548.515 619.898C542.937 625.324 538.387 629.576 534.864 632.655L529.8 637.054C524.075 641.453 519.671 643.653 516.589 643.653C513.36 643.653 511.745 641.16 511.745 636.174C511.745 633.682 512.479 629.869 513.947 624.737C515.268 619.605 516.295 616.159 517.029 614.4C520.405 606.189 524.589 598.197 529.58 590.426C534.717 582.654 540.735 575.25 547.634 568.211C554.533 561.026 562.533 555.234 571.634 550.836C580.881 546.437 590.422 544.237 600.257 544.237C608.477 544.237 612.587 545.484 612.587 547.976C612.587 549.443 610.752 550.176 607.083 550.176C593.578 550.176 580.881 555.968 568.992 567.551C557.249 578.989 547.708 592.185 540.368 607.142C538.313 611.247 537.286 614.693 537.286 617.479C537.286 619.092 537.799 619.898 538.827 619.898C540.588 619.898 542.864 618.652 545.653 616.159C547.414 614.546 549.763 612.42 552.698 609.781C555.781 607.142 560.698 602.083 567.45 594.605C574.203 587.127 579.56 580.162 583.523 573.71C584.111 572.537 584.991 571.144 586.166 569.531C587.487 567.918 589.909 565.792 593.432 563.153C596.954 560.367 600.477 558.974 604 558.974C605.908 558.974 606.862 559.487 606.862 560.513C606.862 560.806 606.642 561.32 606.202 562.053C605.615 563.226 603.927 566.158 601.138 570.851C598.496 575.543 596 580.015 593.652 584.267C591.303 588.373 588.808 592.918 586.166 597.904C583.523 602.743 581.395 606.922 579.78 610.441C578.312 613.96 577.579 616.306 577.579 617.479C577.579 618.359 577.946 618.799 578.68 618.799C580.881 618.799 586.239 614.546 594.753 606.042C601.211 599.297 608.771 591.012 617.431 581.188C617.871 580.748 618.238 580.528 618.532 580.528C618.825 580.528 618.972 580.822 618.972 581.408C618.972 584.194 617.871 586.907 615.67 589.546C601.285 605.529 589.101 618.066 579.12 627.157Z" fill="black"/>
<path d="M670.3 619.679C653.126 635.808 641.823 643.873 636.392 643.873C633.897 643.873 632.649 642.553 632.649 639.914C632.649 638.301 633.016 636.321 633.75 633.975C634.484 631.482 635.365 629.063 636.392 626.717C637.567 624.224 638.667 621.951 639.695 619.898C640.722 617.846 641.75 615.939 642.777 614.18C643.805 612.42 644.319 611.467 644.319 611.321C646.52 607.362 649.823 601.863 654.227 594.825C658.63 587.64 662.153 581.775 664.795 577.229C667.438 572.537 668.759 569.678 668.759 568.651C668.759 567.918 668.392 567.551 667.658 567.551L664.575 568.651C657.823 573.49 649.75 581.041 640.356 591.306C630.961 601.423 623.255 610.368 617.237 618.139L608.209 629.576C606.301 632.362 604.613 634.635 603.145 636.394C601.677 638.154 599.549 639.84 596.76 641.453C594.118 643.213 591.402 644.093 588.613 644.093C586.558 644.093 585.531 643.506 585.531 642.333C585.531 641.16 586.925 637.787 589.714 632.215C592.503 626.497 595.292 621.072 598.081 615.94L602.264 608.461L623.842 570.631C626.044 566.965 627.805 564.179 629.126 562.273C630.594 560.22 632.576 557.727 635.071 554.795C637.567 551.715 640.209 549.443 642.998 547.976C645.933 546.51 649.016 545.63 652.245 545.337C653.419 545.337 654.007 545.85 654.007 546.877C654.007 547.756 653.786 548.489 653.346 549.076C649.97 554.355 644.759 563.079 637.713 575.25C630.814 587.42 626.411 595.338 624.503 599.004C624.062 599.883 623.842 600.543 623.842 600.983C623.842 601.276 623.989 601.423 624.282 601.423C624.576 601.423 625.31 600.983 626.484 600.103C629.273 596.878 632.869 592.845 637.273 588.006C641.823 583.168 649.456 575.909 660.172 566.232C670.887 556.408 679.694 549.809 686.593 546.437C688.208 545.703 689.749 545.337 691.217 545.337C693.272 545.337 694.299 546.51 694.299 548.856C693.125 555.748 687.474 567.551 677.346 584.267C666.19 602.596 660.612 613.447 660.612 616.819C660.612 617.992 661.126 618.579 662.153 618.579C662.887 618.579 663.695 618.359 664.575 617.919C665.603 617.332 666.704 616.599 667.878 615.72C669.052 614.693 670.006 613.813 670.74 613.08C671.621 612.347 672.722 611.394 674.043 610.221C675.364 608.901 676.171 608.095 676.465 607.802C682.63 601.643 690.777 592.772 700.905 581.188C701.345 580.748 701.712 580.528 702.006 580.528C702.299 580.528 702.446 580.822 702.446 581.408C702.446 584.194 701.345 586.907 699.143 589.546C688.281 601.57 678.667 611.614 670.3 619.679Z" fill="black"/>
<path d="M753.727 619.679C736.553 635.808 725.251 643.873 719.82 643.873C717.324 643.873 716.077 642.553 716.077 639.914C716.077 638.301 716.443 636.321 717.177 633.975C717.911 631.482 718.792 629.063 719.82 626.717C720.994 624.224 722.095 621.951 723.122 619.898C724.15 617.846 725.177 615.939 726.205 614.18C727.232 612.42 727.746 611.467 727.746 611.321C729.948 607.362 733.251 601.863 737.654 594.825C742.058 587.64 745.581 581.775 748.223 577.229C750.865 572.537 752.186 569.678 752.186 568.651C752.186 567.918 751.819 567.551 751.085 567.551L748.003 568.651C741.25 573.49 733.177 581.041 723.783 591.306C714.388 601.423 706.682 610.368 700.664 618.139L691.637 629.576C689.728 632.362 688.04 634.635 686.572 636.394C685.105 638.154 682.976 639.84 680.187 641.453C677.545 643.213 674.83 644.093 672.041 644.093C669.986 644.093 668.958 643.506 668.958 642.333C668.958 641.16 670.353 637.787 673.142 632.215C675.93 626.497 678.719 621.072 681.508 615.94L685.692 608.461L707.269 570.631C709.471 566.965 711.233 564.179 712.554 562.273C714.022 560.22 716.003 557.727 718.498 554.795C720.994 551.715 723.636 549.443 726.425 547.976C729.361 546.51 732.443 545.63 735.673 545.337C736.847 545.337 737.434 545.85 737.434 546.877C737.434 547.756 737.214 548.489 736.773 549.076C733.397 554.355 728.186 563.079 721.141 575.25C714.242 587.42 709.838 595.338 707.93 599.004C707.49 599.883 707.269 600.543 707.269 600.983C707.269 601.276 707.416 601.423 707.71 601.423C708.003 601.423 708.737 600.983 709.911 600.103C712.7 596.878 716.297 592.845 720.7 588.006C725.251 583.168 732.884 575.909 743.599 566.232C754.314 556.408 763.121 549.809 770.02 546.437C771.635 545.703 773.176 545.337 774.644 545.337C776.699 545.337 777.727 546.51 777.727 548.856C776.552 555.748 770.901 567.551 760.773 584.267C749.617 602.596 744.039 613.447 744.039 616.819C744.039 617.992 744.553 618.579 745.581 618.579C746.314 618.579 747.122 618.359 748.003 617.919C749.03 617.332 750.131 616.599 751.305 615.72C752.48 614.693 753.434 613.813 754.168 613.08C755.048 612.347 756.149 611.394 757.47 610.221C758.791 608.901 759.599 608.095 759.892 607.802C766.057 601.643 774.204 592.772 784.332 581.188C784.773 580.748 785.139 580.528 785.433 580.528C785.727 580.528 785.873 580.822 785.873 581.408C785.873 584.194 784.773 586.907 782.571 589.546C771.709 601.57 762.094 611.614 753.727 619.679Z" fill="black"/>
<path d="M823.944 566.452C825.705 562.786 826.586 559.56 826.586 556.774C826.586 554.428 825.852 553.255 824.384 553.255C823.503 553.255 822.476 553.548 821.302 554.135C820.274 554.575 819.467 555.088 818.88 555.674L817.779 556.554C813.228 560.513 807.504 567.771 800.605 578.329C793.853 588.74 790.477 595.411 790.477 598.344C790.477 598.93 790.623 599.224 790.917 599.224C791.798 599.224 793.706 598.49 796.642 597.024C799.724 595.558 804.054 592.112 809.632 586.687C815.357 581.261 820.127 574.516 823.944 566.452ZM814.036 616.819C821.815 609.634 832.971 597.757 847.503 581.188C847.943 580.748 848.31 580.528 848.604 580.528C848.898 580.528 849.044 580.822 849.044 581.408C849.044 584.194 847.943 586.907 845.742 589.546C834.879 601.57 825.265 611.614 816.898 619.679C810.733 625.837 803.394 631.776 794.88 637.494C786.367 643.066 779.321 645.852 773.743 645.852C766.991 645.852 763.615 641.16 763.615 631.776C763.615 616.233 769.339 599.957 780.789 582.948C792.385 565.938 805.742 554.428 820.861 548.416C827.173 545.777 832.898 544.457 838.035 544.457C843.76 544.457 846.622 546.73 846.622 551.275C846.622 559.78 840.604 569.531 828.568 580.528C816.531 591.526 803.027 599.883 788.055 605.602C787.467 605.749 786.954 606.262 786.513 607.142C784.311 613.154 783.211 618.506 783.211 623.198C783.211 628.476 785.192 631.116 789.155 631.116C795.467 631.116 803.761 626.35 814.036 616.819ZM865.558 510.366C861.594 514.911 856.824 518.943 851.246 522.463C845.815 525.835 841.338 528.108 837.815 529.281L832.751 531.04C831.136 531.04 830.329 530.747 830.329 530.161C830.329 529.721 830.623 529.061 831.21 528.181C832.678 527.008 834.879 524.809 837.815 521.583C840.751 518.357 843.32 515.498 845.521 513.005L848.824 509.046C849.705 507.726 851.099 507.066 853.008 507.066H863.796C865.558 507.066 866.438 507.58 866.438 508.606C866.438 509.193 866.145 509.779 865.558 510.366Z" fill="black"/>
<path d="M887.159 566.452C888.921 562.786 889.801 559.56 889.801 556.774C889.801 554.428 889.068 553.255 887.6 553.255C886.719 553.255 885.691 553.548 884.517 554.135C883.49 554.575 882.682 555.088 882.095 555.674L880.994 556.554C876.444 560.513 870.719 567.771 863.82 578.329C857.068 588.74 853.692 595.411 853.692 598.344C853.692 598.93 853.839 599.224 854.132 599.224C855.013 599.224 856.921 598.49 859.857 597.024C862.94 595.558 867.27 592.112 872.848 586.687C878.572 581.261 883.343 574.516 887.159 566.452ZM877.251 616.819C885.031 609.634 896.187 597.757 910.719 581.188C911.159 580.748 911.526 580.528 911.819 580.528C912.113 580.528 912.26 580.822 912.26 581.408C912.26 584.194 911.159 586.907 908.957 589.546C898.095 601.57 888.48 611.614 880.114 619.679C873.949 625.837 866.609 631.776 858.096 637.494C849.582 643.066 842.536 645.852 836.958 645.852C830.206 645.852 826.83 641.16 826.83 631.776C826.83 616.233 832.555 599.957 844.004 582.948C855.6 565.938 868.958 554.428 884.077 548.416C890.389 545.777 896.113 544.457 901.251 544.457C906.976 544.457 909.838 546.73 909.838 551.275C909.838 559.78 903.82 569.531 891.783 580.528C879.747 591.526 866.242 599.883 851.27 605.602C850.683 605.749 850.169 606.262 849.729 607.142C847.527 613.154 846.426 618.506 846.426 623.198C846.426 628.476 848.408 631.116 852.371 631.116C858.683 631.116 866.976 626.35 877.251 616.819Z" fill="black"/>
<path d="M984.005 329.349C978.501 344.318 969.786 356.995 957.859 367.381C945.933 377.462 934.771 384.336 924.374 388.001C914.282 391.667 905.108 393.5 896.851 393.5C874.527 393.5 863.366 384.794 863.366 367.381C863.366 349.664 873.151 333.626 892.723 319.268C901.897 312.548 911.836 308.118 922.539 305.98C924.068 305.98 924.832 306.591 924.832 307.813C924.832 308.424 924.527 309.035 923.915 309.646C916.27 315.45 908.93 324.461 901.897 336.681C895.169 348.9 891.805 359.592 891.805 368.756C891.805 377.92 895.628 382.503 903.273 382.503C909.389 382.503 915.352 380.059 921.163 375.171C927.279 369.978 931.866 364.785 934.924 359.592L939.511 352.26C945.627 342.485 950.673 326.905 954.648 305.522C958.93 284.138 961.682 265.198 962.905 248.702L964.281 223.959C964.281 221.515 963.822 220.293 962.905 220.293L961.07 221.209L915.658 274.363C912.294 278.334 910.001 280.32 908.778 280.32C907.249 280.32 906.484 279.25 906.484 277.112C906.484 273.141 907.554 270.086 909.695 267.948L913.823 262.907C948.685 223.806 968.562 200.131 973.455 191.883C978.042 184.857 984.77 178.747 993.638 173.554C1002.2 168.667 1012.29 166.223 1023.91 166.223C1026.97 166.223 1028.5 167.445 1028.5 169.889C1028.5 171.416 1027.28 172.791 1024.83 174.013C1023.91 174.318 1022.69 175.082 1021.16 176.304C1019.94 177.22 1017.49 179.664 1013.82 183.635C1010.46 187.606 1007.4 192.189 1004.65 197.382C1001.89 202.575 999.448 209.906 997.308 219.376C995.167 228.541 994.097 238.774 994.097 250.077C994.097 285.207 990.733 311.631 984.005 329.349Z" fill="black"/>
</g>
</svg>
