<svg width="1674" height="798" viewBox="0 0 1674 798" fill="none" xmlns="http://www.w3.org/2000/svg">
<g id="Vector">
<path d="M115.135 394.986C98.3162 394.986 85.6253 390.862 77.0628 382.614C68.5002 374.366 64.219 362.91 64.219 348.247L65.1364 338.166C65.1364 335.723 64.5248 334.501 63.3016 334.501L60.5493 336.334C53.21 348.553 45.5649 359.855 37.614 370.242C29.6631 380.323 23.547 387.501 19.2657 391.778L12.8438 397.735C8.56253 401.706 5.35158 403.692 3.21095 403.692C1.07032 403.692 0 401.859 0 398.193C0 393.306 1.52902 387.349 4.58707 380.323C9.17414 370.242 15.596 356.801 23.8528 339.999C31.8037 322.892 47.8584 292.803 72.017 249.73C96.4814 206.352 120.181 168.167 143.117 135.175C166.358 101.572 184.4 78.6611 197.244 66.4419C201.831 61.8597 205.348 59.5686 207.794 59.5686C209.323 59.5686 210.088 60.7905 210.088 63.2343C210.088 63.8453 209.782 65.9837 209.17 69.6494C206.418 81.8686 195.562 104.321 176.602 137.008C138.682 198.715 111.16 248.813 94.0349 287.304C82.7202 308.993 77.0628 329.002 77.0628 347.331C77.0628 357.717 79.815 366.271 85.3195 372.991C90.824 379.406 98.4691 382.614 108.255 382.614C122.322 382.614 135.93 376.962 149.08 365.66C162.535 354.357 173.697 340.763 182.565 324.878C191.434 308.993 198.62 292.803 204.125 276.307C209.629 259.811 212.381 245.911 212.381 234.609C212.381 207.421 199.843 190.925 174.767 185.121C174.462 183.899 174.309 182.677 174.309 181.455C174.309 177.789 176.449 175.651 180.731 175.04C204.278 175.04 225.225 166.334 243.573 148.922C261.922 131.204 271.096 110.889 271.096 87.9782C271.096 75.1481 266.356 63.8453 256.876 54.07C247.396 43.9891 229.812 38.9487 204.125 38.9487C176.296 38.9487 153.82 46.5857 136.695 61.8597C119.57 77.1337 111.007 94.5461 111.007 114.097C111.007 119.595 112.077 124.636 114.218 129.218C115.441 131.662 116.053 133.648 116.053 135.175C116.053 137.008 115.135 137.924 113.301 137.924C111.772 137.924 110.395 137.619 109.172 137.008C107.032 136.091 104.432 134.869 101.374 133.342C98.3162 131.815 94.1878 127.996 88.9892 121.887C84.0963 115.777 81.6498 109.056 81.6498 101.725C81.6498 81.5632 94.0349 64.3035 118.805 49.946C143.575 35.2829 173.544 27.9514 208.712 27.9514C212.381 27.9514 216.51 28.1041 221.097 28.4096C225.99 28.7151 233.788 30.0898 244.491 32.5336C255.194 34.9774 264.521 38.3377 272.472 42.6144C280.729 46.5857 288.068 53.0008 294.49 61.8597C300.912 70.7186 304.123 81.1049 304.123 93.0187C304.123 105.543 301.065 117.152 294.949 127.843C289.138 138.23 281.187 147.089 271.096 154.42C261.31 161.446 250.913 167.25 239.904 171.833C229.201 176.415 218.039 179.928 206.418 182.372C204.278 183.288 203.207 184.204 203.207 185.121C203.207 185.732 204.125 186.496 205.959 187.412C206.877 188.023 208.253 188.787 210.088 189.703C211.923 190.62 214.981 193.063 219.262 197.035C223.849 201.006 227.824 205.435 231.188 210.323C234.858 214.905 238.069 221.32 240.821 229.568C243.573 237.816 244.95 246.522 244.95 255.687C244.95 290.817 231.8 322.892 205.501 351.913C179.507 380.628 149.386 394.986 115.135 394.986Z" fill="black"/>
<path d="M436.789 221.32C439.542 221.931 440.918 222.848 440.918 224.07C440.918 225.903 439.695 228.041 437.248 230.485C433.884 233.845 428.839 238.274 422.111 243.773C415.689 249.272 411.866 252.632 410.643 253.854L404.221 262.56C397.799 280.583 387.861 299.37 374.405 318.921C361.256 338.166 345.048 355.121 325.782 369.784C306.822 384.447 288.627 391.778 271.196 391.778C249.484 391.778 238.628 378.49 238.628 351.913C238.628 328.391 246.273 303.036 261.563 275.848C276.854 248.355 296.578 224.986 320.737 205.741C345.201 186.19 369.207 176.415 392.754 176.415C409.879 176.415 418.441 183.135 418.441 196.576C418.441 203.908 414.771 213.836 407.432 226.361C407.126 226.666 406.973 227.124 406.973 227.735C406.973 228.346 407.279 228.652 407.891 228.652C419.206 224.07 428.838 221.626 436.789 221.32ZM393.212 232.318C395.659 221.626 396.882 213.378 396.882 207.574C396.882 194.744 392.601 188.328 384.038 188.328C372.112 188.328 357.28 199.326 339.544 221.32C321.807 243.315 306.517 268.059 293.673 295.552C281.135 323.045 274.866 344.734 274.866 360.619C274.866 372.227 278.994 378.032 287.251 378.032C300.095 378.032 315.385 365.201 333.122 339.541C351.164 313.881 362.02 288.068 365.69 262.102C365.384 261.491 365.231 260.574 365.231 259.353C365.231 250.494 373.182 242.551 389.084 235.525C391.53 234.609 392.906 233.54 393.212 232.318Z" fill="black"/>
<path d="M549.474 338.166C513.694 371.769 490.148 388.571 478.833 388.571C473.634 388.571 471.035 385.821 471.035 380.323C471.035 376.962 471.799 372.838 473.328 367.951C474.857 362.758 476.692 357.717 478.833 352.829C481.279 347.636 483.573 342.901 485.713 338.625C487.854 334.348 489.995 330.377 492.135 326.711C494.276 323.045 495.346 321.06 495.346 320.754C499.933 312.506 506.814 301.051 515.988 286.388C525.162 271.419 532.501 259.2 538.006 249.73C543.51 239.955 546.263 233.998 546.263 231.859C546.263 230.332 545.498 229.568 543.969 229.568L537.547 231.859C523.48 241.94 506.661 257.672 487.089 279.056C467.518 300.134 451.463 318.768 438.925 334.959L420.118 358.786C416.143 364.59 412.626 369.325 409.568 372.991C406.51 376.657 402.076 380.17 396.266 383.53C390.761 387.196 385.104 389.029 379.293 389.029C375.012 389.029 372.871 387.807 372.871 385.363C372.871 382.919 375.777 375.893 381.587 364.285C387.397 352.371 393.207 341.068 399.018 330.377L407.733 314.797L452.686 235.983C457.274 228.346 460.943 222.542 463.695 218.571C466.753 214.294 470.882 209.101 476.081 202.992C481.279 196.576 486.784 191.841 492.594 188.787C498.71 185.732 505.132 183.899 511.86 183.288C514.306 183.288 515.529 184.357 515.529 186.496C515.529 188.328 515.071 189.856 514.153 191.078C507.12 202.075 496.264 220.251 481.585 245.606C467.212 270.961 458.038 287.457 454.063 295.094C453.145 296.927 452.686 298.301 452.686 299.218C452.686 299.829 452.992 300.134 453.604 300.134C454.215 300.134 455.745 299.218 458.191 297.385C464.001 290.664 471.493 282.264 480.668 272.183C490.148 262.102 506.049 246.981 528.373 226.819C550.697 206.352 569.045 192.605 583.418 185.579C586.782 184.052 589.993 183.288 593.051 183.288C597.332 183.288 599.473 185.732 599.473 190.62C597.026 204.977 585.253 229.568 564.152 264.393C540.911 302.578 529.291 325.184 529.291 332.21C529.291 334.653 530.361 335.875 532.501 335.875C534.03 335.875 535.712 335.417 537.547 334.501C539.688 333.279 541.981 331.751 544.428 329.918C546.874 327.78 548.862 325.947 550.391 324.42C552.226 322.892 554.519 320.907 557.272 318.463C560.024 315.714 561.706 314.034 562.317 313.423C575.161 300.592 592.133 282.111 613.234 257.978C614.151 257.061 614.916 256.603 615.527 256.603C616.139 256.603 616.445 257.214 616.445 258.436C616.445 264.24 614.151 269.892 609.564 275.39C586.935 300.44 566.905 321.365 549.474 338.166Z" fill="black"/>
<path d="M723.281 338.166C687.501 371.769 663.954 388.571 652.64 388.571C647.441 388.571 644.842 385.821 644.842 380.323C644.842 376.962 645.606 372.838 647.135 367.951C648.664 362.758 650.499 357.717 652.64 352.829C655.086 347.636 657.38 342.901 659.52 338.625C661.661 334.348 663.802 330.377 665.942 326.711C668.083 323.045 669.153 321.06 669.153 320.754C673.74 312.506 680.621 301.051 689.795 286.388C698.969 271.419 706.308 259.2 711.813 249.73C717.317 239.955 720.07 233.998 720.07 231.859C720.07 230.332 719.305 229.568 717.776 229.568L711.354 231.859C697.287 241.94 680.468 257.672 660.896 279.056C641.325 300.134 625.27 318.768 612.732 334.959L593.925 358.786C589.95 364.59 586.433 369.325 583.375 372.991C580.317 376.657 575.883 380.17 570.072 383.53C564.568 387.196 558.911 389.029 553.1 389.029C548.819 389.029 546.678 387.807 546.678 385.363C546.678 382.919 549.584 375.893 555.394 364.285C561.204 352.371 567.014 341.068 572.825 330.377L581.54 314.797L626.493 235.983C631.08 228.346 634.75 222.542 637.502 218.571C640.56 214.294 644.689 209.101 649.888 202.992C655.086 196.576 660.591 191.841 666.401 188.787C672.517 185.732 678.939 183.899 685.667 183.288C688.113 183.288 689.336 184.357 689.336 186.496C689.336 188.328 688.878 189.856 687.96 191.078C680.927 202.075 670.071 220.251 655.392 245.606C641.019 270.961 631.845 287.457 627.87 295.094C626.952 296.927 626.493 298.301 626.493 299.218C626.493 299.829 626.799 300.134 627.411 300.134C628.022 300.134 629.551 299.218 631.998 297.385C637.808 290.664 645.3 282.264 654.474 272.183C663.954 262.102 679.856 246.981 702.18 226.819C724.504 206.352 742.852 192.605 757.225 185.579C760.589 184.052 763.8 183.288 766.858 183.288C771.139 183.288 773.28 185.732 773.28 190.62C770.833 204.977 759.06 229.568 737.959 264.393C714.718 302.578 703.097 325.184 703.097 332.21C703.097 334.653 704.168 335.875 706.308 335.875C707.837 335.875 709.519 335.417 711.354 334.501C713.495 333.279 715.788 331.751 718.235 329.918C720.681 327.78 722.669 325.947 724.198 324.42C726.033 322.892 728.326 320.907 731.079 318.463C733.831 315.714 735.513 314.034 736.124 313.423C748.968 300.592 765.94 282.111 787.041 257.978C787.958 257.061 788.723 256.603 789.334 256.603C789.946 256.603 790.252 257.214 790.252 258.436C790.252 264.24 787.958 269.892 783.371 275.39C760.742 300.44 740.711 321.365 723.281 338.166Z" fill="black"/>
<path d="M869.565 227.277C873.235 219.64 875.07 212.92 875.07 207.115C875.07 202.228 873.541 199.784 870.483 199.784C868.648 199.784 866.507 200.395 864.061 201.617C861.92 202.533 860.238 203.602 859.015 204.824L856.721 206.657C847.241 214.905 835.315 230.026 820.942 252.021C806.875 273.71 799.842 287.609 799.842 293.719C799.842 294.941 800.147 295.552 800.759 295.552C802.594 295.552 806.569 294.025 812.685 290.97C819.107 287.915 828.129 280.736 839.749 269.433C851.676 258.131 861.614 244.079 869.565 227.277ZM848.923 332.21C865.131 317.241 888.372 292.497 918.647 257.978C919.564 257.061 920.329 256.603 920.94 256.603C921.552 256.603 921.858 257.214 921.858 258.436C921.858 264.24 919.564 269.892 914.977 275.39C892.348 300.44 872.317 321.365 854.886 338.166C842.043 350.997 826.752 363.369 809.016 375.282C791.279 386.891 776.6 392.695 764.98 392.695C750.913 392.695 743.879 382.919 743.879 363.369C743.879 330.988 755.806 297.079 779.659 261.644C803.817 226.208 831.645 202.228 863.143 189.703C876.293 184.204 888.219 181.455 898.922 181.455C910.849 181.455 916.812 186.19 916.812 195.66C916.812 213.378 904.274 233.692 879.198 256.603C854.122 279.514 825.988 296.927 794.796 308.84C793.573 309.146 792.502 310.215 791.585 312.048C786.998 324.573 784.704 335.723 784.704 345.498C784.704 356.495 788.833 361.994 797.089 361.994C810.239 361.994 827.517 352.066 848.923 332.21Z" fill="black"/>
<path d="M1128.28 194.744C1126.44 193.827 1125.52 192.758 1125.52 191.536C1125.52 189.703 1127.21 188.787 1130.57 188.787H1144.33C1176.13 137.466 1202.13 99.892 1222.31 76.0645C1243.41 51.6261 1264.36 33.4501 1285.15 21.5363C1305.95 9.31713 1322 3.20753 1333.32 3.20753C1340.66 3.20753 1344.33 6.41507 1344.33 12.8302C1344.33 26.8822 1336.99 41.2398 1322.31 55.9028C1307.94 70.2604 1295.7 79.5776 1285.61 83.8543C1283.78 84.4652 1282.55 84.7707 1281.94 84.7707C1280.72 84.7707 1280.11 84.007 1280.11 82.4796C1280.11 81.5632 1280.57 80.3412 1281.48 78.8139C1299.22 52.8481 1308.09 35.5884 1308.09 27.035C1308.09 24.8966 1307.17 23.8274 1305.34 23.8274C1301.67 23.8274 1295.55 27.1877 1286.99 33.9083C1266.19 49.4878 1229.8 101.114 1177.82 188.787H1213.14C1217.42 188.787 1219.56 189.398 1219.56 190.62C1219.56 192.147 1218.34 193.827 1215.89 195.66C1213.75 197.493 1212.07 198.409 1210.84 198.409H1178.27C1173.99 198.409 1171.85 199.478 1171.85 201.617C1171.85 202.533 1172.01 205.13 1172.31 209.407C1172.92 213.683 1173.23 217.044 1173.23 219.487C1173.23 247.897 1164.51 282.111 1147.08 322.129C1129.96 361.841 1107.63 400.026 1080.11 436.684C1064.21 457.762 1049.53 475.174 1036.08 488.921C1022.62 502.667 1012.53 511.679 1005.8 515.956C998.768 520.538 993.569 522.829 990.205 522.829C985.924 522.829 983.783 519.927 983.783 514.123C983.783 486.019 1012.99 420.493 1071.4 317.547C1071.4 317.241 1074.3 311.742 1080.11 301.051C1085.92 290.359 1094.33 275.085 1105.34 255.229C1116.66 235.067 1127.97 215.822 1139.28 197.493L1128.28 194.744ZM1160.84 232.318C1160.84 228.041 1160.39 224.07 1159.47 220.404C1111.15 303.494 1077.51 365.049 1058.55 405.067C1041.12 441.113 1032.41 462.191 1032.41 468.301C1032.41 469.523 1032.86 470.134 1033.78 470.134C1038.06 470.134 1048.61 460.206 1065.43 440.35C1083.17 419.577 1103.51 386.738 1126.44 341.832C1149.38 296.927 1160.84 260.422 1160.84 232.318Z" fill="black"/>
<path d="M1296.32 227.277C1299.99 219.64 1301.83 212.92 1301.83 207.115C1301.83 202.228 1300.3 199.784 1297.24 199.784C1295.41 199.784 1293.27 200.395 1290.82 201.617C1288.68 202.533 1287 203.602 1285.77 204.824L1283.48 206.657C1274 214.905 1262.07 230.026 1247.7 252.021C1233.63 273.71 1226.6 287.609 1226.6 293.719C1226.6 294.941 1226.91 295.552 1227.52 295.552C1229.35 295.552 1233.33 294.025 1239.44 290.97C1245.87 287.915 1254.89 280.736 1266.51 269.433C1278.43 258.131 1288.37 244.079 1296.32 227.277ZM1275.68 332.21C1291.89 317.241 1315.13 292.497 1345.41 257.978C1346.32 257.061 1347.09 256.603 1347.7 256.603C1348.31 256.603 1348.62 257.214 1348.62 258.436C1348.62 264.24 1346.32 269.892 1341.74 275.39C1319.11 300.44 1299.08 321.365 1281.65 338.166C1268.8 350.997 1253.51 363.369 1235.77 375.282C1218.04 386.891 1203.36 392.695 1191.74 392.695C1177.67 392.695 1170.64 382.919 1170.64 363.369C1170.64 330.988 1182.56 297.079 1206.42 261.644C1230.58 226.208 1258.4 202.228 1289.9 189.703C1303.05 184.204 1314.98 181.455 1325.68 181.455C1337.61 181.455 1343.57 186.19 1343.57 195.66C1343.57 213.378 1331.03 233.692 1305.96 256.603C1280.88 279.514 1252.75 296.927 1221.55 308.84C1220.33 309.146 1219.26 310.215 1218.34 312.048C1213.76 324.573 1211.46 335.723 1211.46 345.498C1211.46 356.495 1215.59 361.994 1223.85 361.994C1237 361.994 1254.28 352.066 1275.68 332.21ZM1349.53 118.679C1349.23 117.457 1348.77 116.846 1348.16 116.846L1345.41 118.679C1335.31 128.76 1323.69 137.161 1310.54 143.881C1297.39 150.296 1288.22 153.504 1283.02 153.504C1280.88 153.504 1279.81 152.893 1279.81 151.671L1281.65 147.547C1284.7 145.103 1289.29 140.521 1295.41 133.8C1301.52 127.08 1306.87 121.123 1311.46 115.93L1318.34 107.682C1320.18 104.932 1323.08 103.558 1327.06 103.558H1377.06C1379.5 103.558 1380.73 104.627 1380.73 106.765C1380.73 107.071 1380.42 109.515 1379.81 114.097C1379.2 118.679 1378.59 124.636 1377.97 131.967C1377.36 138.993 1377.06 145.561 1377.06 151.671C1377.06 154.726 1376.14 156.253 1374.3 156.253C1369.72 156.253 1364.82 151.824 1359.63 142.965C1354.43 133.8 1351.06 125.705 1349.53 118.679Z" fill="black"/>
<path d="M1381.69 313.423C1394.54 300.592 1411.51 282.111 1432.61 257.978C1433.53 257.061 1434.29 256.603 1434.9 256.603C1435.51 256.603 1435.82 257.214 1435.82 258.436C1435.82 264.24 1433.53 269.892 1428.94 275.39C1406.31 300.44 1386.28 321.365 1368.85 338.166C1332.15 373.602 1307.84 391.32 1295.92 391.32C1291.63 391.32 1289.49 388.571 1289.49 383.072C1289.49 376.657 1291.94 367.034 1296.83 354.204C1301.73 341.374 1306.62 330.071 1311.51 320.296L1318.85 306.091C1325.88 293.566 1337.5 272.183 1353.71 241.94C1369.92 211.698 1385.52 183.135 1400.5 156.253C1415.79 129.371 1430.16 105.085 1443.62 83.396H1407.38C1404.32 83.396 1402.79 82.6323 1402.79 81.1049C1402.79 79.5775 1404.02 78.0501 1406.46 76.5228C1408.91 74.9954 1411.51 74.2317 1414.26 74.2317C1420.99 74.2317 1432.76 74.0789 1449.58 73.7734C1464.57 50.2515 1477.41 31.6172 1488.11 17.8706C1497.59 5.95686 1504.17 0 1507.84 0C1509.98 0 1511.05 1.37466 1511.05 4.12398C1511.05 10.5391 1505.24 24.2857 1493.62 45.3638L1478.02 73.7734H1525.27C1528.02 73.7734 1529.4 74.5371 1529.4 76.0645C1529.4 80.9522 1524.96 83.396 1516.09 83.396H1472.98C1402.34 217.196 1365.18 287.304 1361.51 293.719C1348.67 317.241 1342.24 332.515 1342.24 339.541C1342.24 341.679 1343.01 342.749 1344.54 342.749C1348.82 342.749 1361.2 332.973 1381.69 313.423Z" fill="black"/>
<path d="M1515.37 227.277C1519.04 219.64 1520.88 212.92 1520.88 207.115C1520.88 202.228 1519.35 199.784 1516.29 199.784C1514.46 199.784 1512.32 200.395 1509.87 201.617C1507.73 202.533 1506.05 203.602 1504.82 204.824L1502.53 206.657C1493.05 214.905 1481.12 230.026 1466.75 252.021C1452.68 273.71 1445.65 287.609 1445.65 293.719C1445.65 294.941 1445.96 295.552 1446.57 295.552C1448.4 295.552 1452.38 294.025 1458.49 290.97C1464.92 287.915 1473.94 280.736 1485.56 269.433C1497.48 258.131 1507.42 244.079 1515.37 227.277ZM1494.73 332.21C1510.94 317.241 1534.18 292.497 1564.46 257.978C1565.37 257.061 1566.14 256.603 1566.75 256.603C1567.36 256.603 1567.67 257.214 1567.67 258.436C1567.67 264.24 1565.37 269.892 1560.79 275.39C1538.16 300.44 1518.13 321.365 1500.7 338.166C1487.85 350.997 1472.56 363.369 1454.82 375.282C1437.09 386.891 1422.41 392.695 1410.79 392.695C1396.72 392.695 1389.69 382.919 1389.69 363.369C1389.69 330.988 1401.62 297.079 1425.47 261.644C1449.63 226.208 1477.45 202.228 1508.95 189.703C1522.1 184.204 1534.03 181.455 1544.73 181.455C1556.66 181.455 1562.62 186.19 1562.62 195.66C1562.62 213.378 1550.08 233.692 1525.01 256.603C1499.93 279.514 1471.8 296.927 1440.6 308.84C1439.38 309.146 1438.31 310.215 1437.39 312.048C1432.81 324.573 1430.51 335.723 1430.51 345.498C1430.51 356.495 1434.64 361.994 1442.9 361.994C1456.05 361.994 1473.33 352.066 1494.73 332.21Z" fill="black"/>
<path d="M1629.18 330.377C1623.68 345.345 1614.96 358.023 1603.04 368.409C1591.11 378.49 1579.95 385.363 1569.55 389.029C1559.46 392.695 1550.29 394.528 1542.03 394.528C1519.71 394.528 1508.54 385.821 1508.54 368.409C1508.54 350.691 1518.33 334.653 1537.9 320.296C1547.08 313.575 1557.01 309.146 1567.72 307.007C1569.25 307.007 1570.01 307.618 1570.01 308.84C1570.01 309.451 1569.7 310.062 1569.09 310.673C1561.45 316.477 1554.11 325.489 1547.08 337.708C1540.35 349.927 1536.98 360.619 1536.98 369.784C1536.98 378.948 1540.81 383.53 1548.45 383.53C1554.57 383.53 1560.53 381.086 1566.34 376.199C1572.46 371.006 1577.04 365.812 1580.1 360.619L1584.69 353.288C1590.81 343.512 1595.85 327.933 1599.83 306.549C1604.11 285.166 1606.86 266.226 1608.08 249.73L1609.46 224.986C1609.46 222.542 1609 221.32 1608.08 221.32L1606.25 222.237L1560.84 275.39C1557.47 279.361 1555.18 281.347 1553.96 281.347C1552.43 281.347 1551.66 280.278 1551.66 278.14C1551.66 274.168 1552.73 271.114 1554.87 268.975L1559 263.935C1593.86 224.833 1613.74 201.159 1618.63 192.911C1623.22 185.885 1629.95 179.775 1638.82 174.582C1647.38 169.694 1657.47 167.25 1669.09 167.25C1672.15 167.25 1673.68 168.472 1673.68 170.916C1673.68 172.444 1672.46 173.818 1670.01 175.04C1669.09 175.346 1667.87 176.109 1666.34 177.331C1665.12 178.248 1662.67 180.691 1659 184.663C1655.64 188.634 1652.58 193.216 1649.83 198.409C1647.07 203.602 1644.63 210.934 1642.49 220.404C1640.35 229.568 1639.28 239.802 1639.28 251.105C1639.28 286.235 1635.91 312.659 1629.18 330.377Z" fill="black"/>
<path d="M720.374 706.96C721.254 706.227 722.429 705.201 723.896 703.881C725.511 702.415 728.52 699.482 732.924 695.083C737.327 690.538 741.511 685.919 745.474 681.227C749.584 676.388 754.061 670.449 758.905 663.411C763.896 656.373 768.153 649.408 771.675 642.516C771.822 642.223 771.896 641.93 771.896 641.636L771.675 640.977C770.648 640.39 769.474 640.097 768.153 640.097C761.841 640.097 753.988 644.789 744.593 654.173C735.346 663.558 727.419 673.675 720.814 684.526C714.355 695.23 711.126 702.928 711.126 707.62C711.126 709.673 711.933 710.699 713.548 710.699C715.309 710.699 717.585 709.453 720.374 706.96ZM769.033 697.283C775.198 691.124 783.345 682.253 793.473 670.669C793.914 670.229 794.281 670.009 794.574 670.009C794.868 670.009 795.014 670.303 795.014 670.889C795.014 673.675 793.914 676.388 791.712 679.027C780.85 691.051 771.235 701.095 762.868 709.16C745.548 725.289 734.172 733.354 728.74 733.354C726.685 733.354 725.658 732.254 725.658 730.055C725.658 727.269 727.052 722.87 729.841 716.858C732.63 710.846 735.493 705.494 738.428 700.802L742.612 693.764C743.199 693.03 743.492 692.371 743.492 691.784C743.492 691.491 743.346 691.344 743.052 691.344C742.465 691.344 741.658 691.857 740.63 692.884C736.08 698.162 730.869 703.588 724.997 709.16C719.126 714.732 714.355 719.057 710.686 722.137L705.401 726.535C699.53 731.081 695.126 733.354 692.191 733.354L691.31 733.134C688.815 732.987 687.567 730.788 687.567 726.535C687.567 715.392 691.457 702.708 699.236 688.485C707.163 674.115 717.365 661.652 729.841 651.094C742.318 640.537 754.355 635.258 765.951 635.258C767.125 635.258 768.226 635.405 769.253 635.698C770.281 635.845 771.015 635.991 771.455 636.138C772.042 636.284 772.556 636.504 772.997 636.798L773.657 637.018C773.951 637.018 774.318 636.798 774.758 636.358C801.913 587.383 822.757 553.585 837.289 534.963C841.692 529.098 844.848 526.165 846.757 526.165C847.491 526.165 847.857 526.752 847.857 527.925C847.857 531.004 845.509 537.309 840.812 546.84C818.207 588.19 802.354 616.856 793.253 632.839C776.96 661.871 767.052 679.32 763.529 685.186C756.336 697.503 752.74 704.981 752.74 707.62C752.74 708.647 753.18 709.16 754.061 709.16C754.795 709.16 755.602 708.94 756.483 708.5C757.511 707.913 758.611 707.107 759.786 706.081C760.96 705.054 761.988 704.101 762.868 703.221C763.896 702.341 765.07 701.242 766.391 699.922C767.712 698.602 768.593 697.723 769.033 697.283Z" fill="black"/>
<path d="M833.126 655.933C834.888 652.267 835.768 649.041 835.768 646.255C835.768 643.909 835.034 642.736 833.566 642.736C832.686 642.736 831.658 643.029 830.484 643.616C829.456 644.056 828.649 644.569 828.062 645.156L826.961 646.035C822.411 649.994 816.686 657.253 809.787 667.81C803.035 678.221 799.659 684.892 799.659 687.825C799.659 688.412 799.806 688.705 800.099 688.705C800.98 688.705 802.888 687.972 805.824 686.505C808.906 685.039 813.237 681.593 818.814 676.168C824.539 670.743 829.31 663.998 833.126 655.933ZM823.218 706.3C830.998 699.116 842.153 687.238 856.685 670.669C857.126 670.229 857.493 670.009 857.786 670.009C858.08 670.009 858.227 670.303 858.227 670.889C858.227 673.675 857.126 676.388 854.924 679.027C844.062 691.051 834.447 701.095 826.08 709.16C819.915 715.318 812.576 721.257 804.062 726.975C795.549 732.547 788.503 735.333 782.925 735.333C776.173 735.333 772.797 730.641 772.797 721.257C772.797 705.714 778.522 689.438 789.971 672.429C801.567 655.42 814.925 643.909 830.044 637.897C836.355 635.258 842.08 633.938 847.218 633.938C852.942 633.938 855.805 636.211 855.805 640.757C855.805 649.261 849.786 659.012 837.75 670.009C825.713 681.007 812.209 689.365 797.237 695.083C796.65 695.23 796.136 695.743 795.696 696.623C793.494 702.635 792.393 707.987 792.393 712.679C792.393 717.958 794.375 720.597 798.338 720.597C804.65 720.597 812.943 715.831 823.218 706.3Z" fill="black"/>
<path d="M907.062 640.317C906.181 639.877 905.741 639.364 905.741 638.777C905.741 637.897 906.548 637.457 908.163 637.457H914.768C930.034 612.824 942.511 594.788 952.198 583.351C962.327 571.62 972.382 562.896 982.363 557.177C992.344 551.312 1000.05 548.38 1005.48 548.38C1009 548.38 1010.77 549.919 1010.77 552.998C1010.77 559.743 1007.24 566.635 1000.2 573.673C993.299 580.565 987.427 585.037 982.583 587.09C981.702 587.383 981.115 587.53 980.822 587.53C980.235 587.53 979.941 587.163 979.941 586.43C979.941 585.99 980.161 585.404 980.602 584.671C989.115 572.207 993.372 563.922 993.372 559.817C993.372 558.79 992.932 558.277 992.051 558.277C990.289 558.277 987.354 559.89 983.244 563.116C973.262 570.594 955.795 595.375 930.841 637.457H947.795C949.85 637.457 950.877 637.751 950.877 638.337C950.877 639.07 950.29 639.877 949.116 640.757C948.088 641.636 947.281 642.076 946.694 642.076H931.061C929.006 642.076 927.979 642.59 927.979 643.616C927.979 644.056 928.052 645.302 928.199 647.355C928.492 649.408 928.639 651.021 928.639 652.194C928.639 665.83 924.456 682.253 916.089 701.462C907.869 720.524 897.154 738.852 883.943 756.448C876.31 766.566 869.264 774.924 862.806 781.522C856.347 788.12 851.503 792.446 848.274 794.499C844.898 796.698 842.402 797.798 840.788 797.798C838.733 797.798 837.705 796.405 837.705 793.619C837.705 780.129 851.723 748.677 879.759 699.262C879.759 699.116 881.154 696.476 883.943 691.344C886.732 686.212 890.768 678.881 896.053 669.35C901.484 659.672 906.915 650.434 912.346 641.636L907.062 640.317ZM922.694 658.352C922.694 656.299 922.474 654.393 922.034 652.634C898.842 692.517 882.695 722.063 873.594 741.272C865.228 758.574 861.044 768.692 861.044 771.624C861.044 772.211 861.264 772.504 861.705 772.504C863.76 772.504 868.824 767.739 876.897 758.208C885.411 748.237 895.172 732.474 906.181 710.919C917.19 689.365 922.694 671.842 922.694 658.352Z" fill="black"/>
<path d="M957.56 709.16C940.386 725.289 929.377 733.354 924.533 733.354C922.038 733.354 920.79 731.667 920.79 728.295C920.79 724.922 922.111 720.01 924.753 713.559C927.396 707.107 930.038 701.462 932.68 696.623L936.643 689.585C947.799 670.083 956.239 656.08 961.964 647.575C964.459 643.909 967.615 640.83 971.431 638.337C975.395 635.698 979.064 634.378 982.44 634.378C983.615 634.378 984.202 634.891 984.202 635.918C984.202 636.651 983.688 638.044 982.661 640.097C980.899 643.323 976.569 651.021 969.67 663.191C962.771 675.361 958.661 682.693 957.34 685.186C951.322 695.743 948.313 702.781 948.313 706.3C948.313 707.62 948.753 708.28 949.634 708.28C951.101 708.28 955.799 704.614 963.725 697.283C969.89 691.124 978.037 682.253 988.165 670.669C988.605 670.229 988.972 670.009 989.266 670.009C989.56 670.009 989.706 670.303 989.706 670.889C989.706 673.675 988.605 676.388 986.404 679.027C975.541 691.051 965.927 701.095 957.56 709.16ZM986.844 621.841C983.174 621.841 981.339 619.642 981.339 615.243C981.339 611.137 982.881 607.032 985.963 602.926C989.046 598.674 992.422 596.548 996.092 596.548C1000.5 596.548 1002.7 599.04 1002.7 604.026C1002.7 608.131 1001.01 612.164 997.633 616.123C994.257 619.935 990.66 621.841 986.844 621.841Z" fill="black"/>
<path d="M1040.93 709.16C1023.75 725.289 1012.45 733.354 1007.02 733.354C1004.53 733.354 1003.28 732.034 1003.28 729.395C1003.28 727.782 1003.65 725.802 1004.38 723.456C1005.11 720.964 1005.99 718.544 1007.02 716.198C1008.2 713.705 1009.3 711.433 1010.32 709.38C1011.35 707.327 1012.38 705.421 1013.41 703.661C1014.43 701.902 1014.95 700.948 1014.95 700.802C1017.15 696.843 1020.45 691.344 1024.86 684.306C1029.26 677.121 1032.78 671.256 1035.42 666.71C1038.07 662.018 1039.39 659.159 1039.39 658.132C1039.39 657.399 1039.02 657.033 1038.29 657.033L1035.2 658.132C1028.45 662.971 1020.38 670.523 1010.98 680.787C1001.59 690.904 993.884 699.849 987.866 707.62L978.838 719.057C976.93 721.843 975.242 724.116 973.774 725.876C972.306 727.635 970.178 729.321 967.389 730.934C964.747 732.694 962.031 733.574 959.242 733.574C957.187 733.574 956.16 732.987 956.16 731.814C956.16 730.641 957.554 727.269 960.343 721.697C963.132 715.978 965.921 710.553 968.71 705.421L972.894 697.943L994.471 660.112C996.673 656.446 998.434 653.66 999.755 651.754C1001.22 649.701 1003.2 647.208 1005.7 644.276C1008.2 641.197 1010.84 638.924 1013.63 637.457C1016.56 635.991 1019.64 635.111 1022.87 634.818C1024.05 634.818 1024.64 635.331 1024.64 636.358C1024.64 637.238 1024.42 637.971 1023.98 638.557C1020.6 643.836 1015.39 652.56 1008.34 664.731C1001.44 676.901 997.04 684.819 995.132 688.485C994.691 689.365 994.471 690.025 994.471 690.464C994.471 690.758 994.618 690.904 994.911 690.904C995.205 690.904 995.939 690.464 997.113 689.585C999.902 686.359 1003.5 682.326 1007.9 677.488C1012.45 672.649 1020.09 665.391 1030.8 655.713C1041.52 645.889 1050.32 639.29 1057.22 635.918C1058.84 635.185 1060.38 634.818 1061.85 634.818C1063.9 634.818 1064.93 635.991 1064.93 638.337C1063.75 645.229 1058.1 657.033 1047.97 673.749C1036.82 692.077 1031.24 702.928 1031.24 706.3C1031.24 707.474 1031.75 708.06 1032.78 708.06C1033.52 708.06 1034.32 707.84 1035.2 707.4C1036.23 706.814 1037.33 706.081 1038.51 705.201C1039.68 704.174 1040.64 703.295 1041.37 702.561C1042.25 701.828 1043.35 700.875 1044.67 699.702C1045.99 698.382 1046.8 697.576 1047.09 697.283C1053.26 691.124 1061.41 682.253 1071.53 670.669C1071.97 670.229 1072.34 670.009 1072.63 670.009C1072.93 670.009 1073.08 670.303 1073.08 670.889C1073.08 673.675 1071.97 676.388 1069.77 679.027C1058.91 691.051 1049.3 701.095 1040.93 709.16Z" fill="black"/>
<path d="M1119.66 706.96C1120.54 706.227 1121.72 705.201 1123.19 703.881C1124.8 702.415 1127.81 699.482 1132.21 695.083C1136.62 690.538 1140.8 685.919 1144.76 681.227C1148.87 676.388 1153.35 670.449 1158.2 663.411C1163.19 656.373 1167.44 649.408 1170.97 642.516C1171.11 642.223 1171.19 641.93 1171.19 641.636L1170.97 640.977C1169.94 640.39 1168.76 640.097 1167.44 640.097C1161.13 640.097 1153.28 644.789 1143.88 654.173C1134.64 663.558 1126.71 673.675 1120.1 684.526C1113.65 695.23 1110.42 702.928 1110.42 707.62C1110.42 709.673 1111.22 710.699 1112.84 710.699C1114.6 710.699 1116.87 709.453 1119.66 706.96ZM1168.32 697.283C1174.49 691.124 1182.64 682.253 1192.76 670.669C1193.2 670.229 1193.57 670.009 1193.86 670.009C1194.16 670.009 1194.3 670.303 1194.3 670.889C1194.3 673.675 1193.2 676.388 1191 679.027C1180.14 691.051 1170.53 701.095 1162.16 709.16C1144.84 725.289 1133.46 733.354 1128.03 733.354C1125.98 733.354 1124.95 732.254 1124.95 730.055C1124.95 727.269 1126.34 722.87 1129.13 716.858C1131.92 710.846 1134.78 705.494 1137.72 700.802L1141.9 693.764C1142.49 693.03 1142.78 692.371 1142.78 691.784C1142.78 691.491 1142.64 691.344 1142.34 691.344C1141.76 691.344 1140.95 691.857 1139.92 692.884C1135.37 698.162 1130.16 703.588 1124.29 709.16C1118.42 714.732 1113.65 719.057 1109.98 722.137L1104.69 726.535C1098.82 731.081 1094.42 733.354 1091.48 733.354L1090.6 733.134C1088.1 732.987 1086.86 730.788 1086.86 726.535C1086.86 715.392 1090.75 702.708 1098.53 688.485C1106.45 674.115 1116.65 661.652 1129.13 651.094C1141.61 640.537 1153.64 635.258 1165.24 635.258C1166.42 635.258 1167.52 635.405 1168.54 635.698C1169.57 635.845 1170.3 635.991 1170.75 636.138C1171.33 636.284 1171.85 636.504 1172.29 636.798L1172.95 637.018C1173.24 637.018 1173.61 636.798 1174.05 636.358C1201.2 587.383 1222.05 553.585 1236.58 534.963C1240.98 529.098 1244.14 526.165 1246.05 526.165C1246.78 526.165 1247.15 526.752 1247.15 527.925C1247.15 531.004 1244.8 537.309 1240.1 546.84C1217.5 588.19 1201.64 616.856 1192.54 632.839C1176.25 661.871 1166.34 679.32 1162.82 685.186C1155.63 697.503 1152.03 704.981 1152.03 707.62C1152.03 708.647 1152.47 709.16 1153.35 709.16C1154.09 709.16 1154.89 708.94 1155.77 708.5C1156.8 707.913 1157.9 707.107 1159.08 706.081C1160.25 705.054 1161.28 704.101 1162.16 703.221C1163.19 702.341 1164.36 701.242 1165.68 699.922C1167 698.602 1167.88 697.723 1168.32 697.283Z" fill="black"/>
<path d="M1259.5 566.855C1256.12 573.6 1252.16 579.319 1247.61 584.011C1243.21 588.556 1239.68 591.489 1237.04 592.809L1232.86 594.568C1231.68 594.861 1230.95 595.008 1230.65 595.008C1229.77 595.008 1229.33 594.568 1229.33 593.688L1229.77 591.929C1231.54 589.143 1233.44 585.844 1235.5 582.031C1237.7 578.219 1239.39 575.066 1240.56 572.573L1242.54 568.834L1242.76 568.395C1242.91 568.101 1243.21 567.661 1243.65 567.075C1244.23 566.342 1244.97 565.682 1245.85 565.095C1246.87 564.509 1248.34 563.996 1250.25 563.556C1252.31 563.116 1254.58 562.896 1257.08 562.896C1259.13 562.896 1260.16 563.556 1260.16 564.875C1260.16 565.315 1259.94 565.975 1259.5 566.855Z" fill="black"/>
<path d="M1266.69 716.638C1254.5 727.782 1246.14 733.354 1241.59 733.354C1239.53 733.354 1238.5 732.181 1238.5 729.835C1238.5 726.902 1239.75 722.43 1242.25 716.418C1244.89 710.406 1247.53 705.127 1250.17 700.582L1254.14 693.764C1254.72 692.737 1255.02 692.077 1255.02 691.784C1255.02 691.491 1254.87 691.344 1254.58 691.344C1253.99 691.344 1252.89 692.151 1251.27 693.764C1246.87 698.602 1241.81 703.808 1236.08 709.38C1230.5 714.805 1225.95 719.057 1222.43 722.137L1217.37 726.535C1211.64 730.934 1207.24 733.134 1204.16 733.134C1200.93 733.134 1199.31 730.641 1199.31 725.656C1199.31 723.163 1200.05 719.351 1201.51 714.219C1202.83 709.086 1203.86 705.641 1204.6 703.881C1207.97 695.67 1212.16 687.678 1217.15 679.907C1222.28 672.136 1228.3 664.731 1235.2 657.692C1242.1 650.508 1250.1 644.716 1259.2 640.317C1268.45 635.918 1277.99 633.718 1287.82 633.718C1296.04 633.718 1300.15 634.965 1300.15 637.457C1300.15 638.924 1298.32 639.657 1294.65 639.657C1281.15 639.657 1268.45 645.449 1256.56 657.033C1244.82 668.47 1235.27 681.667 1227.94 696.623C1225.88 700.729 1224.85 704.174 1224.85 706.96C1224.85 708.573 1225.37 709.38 1226.39 709.38C1228.16 709.38 1230.43 708.133 1233.22 705.641C1234.98 704.028 1237.33 701.902 1240.27 699.262C1243.35 696.623 1248.27 691.564 1255.02 684.086C1261.77 676.608 1267.13 669.643 1271.09 663.191C1271.68 662.018 1272.56 660.625 1273.73 659.012C1275.05 657.399 1277.48 655.273 1281 652.634C1284.52 649.848 1288.04 648.455 1291.57 648.455C1293.48 648.455 1294.43 648.968 1294.43 649.994C1294.43 650.288 1294.21 650.801 1293.77 651.534C1293.18 652.707 1291.49 655.64 1288.7 660.332C1286.06 665.024 1283.57 669.496 1281.22 673.749C1278.87 677.854 1276.37 682.4 1273.73 687.385C1271.09 692.224 1268.96 696.403 1267.35 699.922C1265.88 703.441 1265.15 705.787 1265.15 706.96C1265.15 707.84 1265.51 708.28 1266.25 708.28C1268.45 708.28 1273.81 704.028 1282.32 695.523C1288.78 688.778 1296.34 680.493 1305 670.669C1305.44 670.229 1305.81 670.009 1306.1 670.009C1306.39 670.009 1306.54 670.303 1306.54 670.889C1306.54 673.675 1305.44 676.388 1303.24 679.027C1288.85 695.01 1276.67 707.547 1266.69 716.638Z" fill="black"/>
<path d="M1357.87 709.16C1340.69 725.289 1329.39 733.354 1323.96 733.354C1321.46 733.354 1320.22 732.034 1320.22 729.395C1320.22 727.782 1320.58 725.802 1321.32 723.456C1322.05 720.964 1322.93 718.544 1323.96 716.198C1325.13 713.705 1326.23 711.433 1327.26 709.38C1328.29 707.327 1329.32 705.421 1330.34 703.661C1331.37 701.902 1331.89 700.948 1331.89 700.802C1334.09 696.843 1337.39 691.344 1341.79 684.306C1346.2 677.121 1349.72 671.256 1352.36 666.71C1355 662.018 1356.33 659.159 1356.33 658.132C1356.33 657.399 1355.96 657.033 1355.22 657.033L1352.14 658.132C1345.39 662.971 1337.32 670.523 1327.92 680.787C1318.53 690.904 1310.82 699.849 1304.8 707.62L1295.78 719.057C1293.87 721.843 1292.18 724.116 1290.71 725.876C1289.24 727.635 1287.12 729.321 1284.33 730.934C1281.68 732.694 1278.97 733.574 1276.18 733.574C1274.13 733.574 1273.1 732.987 1273.1 731.814C1273.1 730.641 1274.49 727.269 1277.28 721.697C1280.07 715.978 1282.86 710.553 1285.65 705.421L1289.83 697.943L1311.41 660.112C1313.61 656.446 1315.37 653.66 1316.69 651.754C1318.16 649.701 1320.14 647.208 1322.64 644.276C1325.13 641.197 1327.78 638.924 1330.56 637.457C1333.5 635.991 1336.58 635.111 1339.81 634.818C1340.99 634.818 1341.57 635.331 1341.57 636.358C1341.57 637.238 1341.35 637.971 1340.91 638.557C1337.54 643.836 1332.33 652.56 1325.28 664.731C1318.38 676.901 1313.98 684.819 1312.07 688.485C1311.63 689.365 1311.41 690.025 1311.41 690.464C1311.41 690.758 1311.56 690.904 1311.85 690.904C1312.14 690.904 1312.88 690.464 1314.05 689.585C1316.84 686.359 1320.44 682.326 1324.84 677.488C1329.39 672.649 1337.02 665.391 1347.74 655.713C1358.45 645.889 1367.26 639.29 1374.16 635.918C1375.77 635.185 1377.32 634.818 1378.78 634.818C1380.84 634.818 1381.87 635.991 1381.87 638.337C1380.69 645.229 1375.04 657.033 1364.91 673.749C1353.76 692.077 1348.18 702.928 1348.18 706.3C1348.18 707.474 1348.69 708.06 1349.72 708.06C1350.45 708.06 1351.26 707.84 1352.14 707.4C1353.17 706.814 1354.27 706.081 1355.44 705.201C1356.62 704.174 1357.57 703.295 1358.31 702.561C1359.19 701.828 1360.29 700.875 1361.61 699.702C1362.93 698.382 1363.74 697.576 1364.03 697.283C1370.2 691.124 1378.34 682.253 1388.47 670.669C1388.91 670.229 1389.28 670.009 1389.57 670.009C1389.87 670.009 1390.01 670.303 1390.01 670.889C1390.01 673.675 1388.91 676.388 1386.71 679.027C1375.85 691.051 1366.23 701.095 1357.87 709.16Z" fill="black"/>
<path d="M1441.29 709.16C1424.12 725.289 1412.82 733.354 1407.39 733.354C1404.89 733.354 1403.64 732.034 1403.64 729.395C1403.64 727.782 1404.01 725.802 1404.74 723.456C1405.48 720.964 1406.36 718.544 1407.39 716.198C1408.56 713.705 1409.66 711.433 1410.69 709.38C1411.72 707.327 1412.74 705.421 1413.77 703.661C1414.8 701.902 1415.31 700.948 1415.31 700.802C1417.51 696.843 1420.82 691.344 1425.22 684.306C1429.62 677.121 1433.15 671.256 1435.79 666.71C1438.43 662.018 1439.75 659.159 1439.75 658.132C1439.75 657.399 1439.39 657.033 1438.65 657.033L1435.57 658.132C1428.82 662.971 1420.74 670.523 1411.35 680.787C1401.96 690.904 1394.25 699.849 1388.23 707.62L1379.2 719.057C1377.3 721.843 1375.61 724.116 1374.14 725.876C1372.67 727.635 1370.54 729.321 1367.75 730.934C1365.11 732.694 1362.4 733.574 1359.61 733.574C1357.55 733.574 1356.53 732.987 1356.53 731.814C1356.53 730.641 1357.92 727.269 1360.71 721.697C1363.5 715.978 1366.29 710.553 1369.08 705.421L1373.26 697.943L1394.84 660.112C1397.04 656.446 1398.8 653.66 1400.12 651.754C1401.59 649.701 1403.57 647.208 1406.07 644.276C1408.56 641.197 1411.2 638.924 1413.99 637.457C1416.93 635.991 1420.01 635.111 1423.24 634.818C1424.41 634.818 1425 635.331 1425 636.358C1425 637.238 1424.78 637.971 1424.34 638.557C1420.96 643.836 1415.75 652.56 1408.71 664.731C1401.81 676.901 1397.41 684.819 1395.5 688.485C1395.06 689.365 1394.84 690.025 1394.84 690.464C1394.84 690.758 1394.98 690.904 1395.28 690.904C1395.57 690.904 1396.3 690.464 1397.48 689.585C1400.27 686.359 1403.86 682.326 1408.27 677.488C1412.82 672.649 1420.45 665.391 1431.17 655.713C1441.88 645.889 1450.69 639.29 1457.59 635.918C1459.2 635.185 1460.74 634.818 1462.21 634.818C1464.27 634.818 1465.29 635.991 1465.29 638.337C1464.12 645.229 1458.47 657.033 1448.34 673.749C1437.18 692.077 1431.61 702.928 1431.61 706.3C1431.61 707.474 1432.12 708.06 1433.15 708.06C1433.88 708.06 1434.69 707.84 1435.57 707.4C1436.6 706.814 1437.7 706.081 1438.87 705.201C1440.05 704.174 1441 703.295 1441.73 702.561C1442.62 701.828 1443.72 700.875 1445.04 699.702C1446.36 698.382 1447.17 697.576 1447.46 697.283C1453.62 691.124 1461.77 682.253 1471.9 670.669C1472.34 670.229 1472.71 670.009 1473 670.009C1473.29 670.009 1473.44 670.303 1473.44 670.889C1473.44 673.675 1472.34 676.388 1470.14 679.027C1459.28 691.051 1449.66 701.095 1441.29 709.16Z" fill="black"/>
<path d="M1511.51 655.933C1513.27 652.267 1514.15 649.041 1514.15 646.255C1514.15 643.909 1513.42 642.736 1511.95 642.736C1511.07 642.736 1510.04 643.029 1508.87 643.616C1507.84 644.056 1507.03 644.569 1506.45 645.156L1505.35 646.035C1500.8 649.994 1495.07 657.253 1488.17 667.81C1481.42 678.221 1478.04 684.892 1478.04 687.825C1478.04 688.412 1478.19 688.705 1478.48 688.705C1479.36 688.705 1481.27 687.972 1484.21 686.505C1487.29 685.039 1491.62 681.593 1497.2 676.168C1502.92 670.743 1507.69 663.998 1511.51 655.933ZM1501.6 706.3C1509.38 699.116 1520.54 687.238 1535.07 670.669C1535.51 670.229 1535.88 670.009 1536.17 670.009C1536.46 670.009 1536.61 670.303 1536.61 670.889C1536.61 673.675 1535.51 676.388 1533.31 679.027C1522.45 691.051 1512.83 701.095 1504.46 709.16C1498.3 715.318 1490.96 721.257 1482.45 726.975C1473.93 732.547 1466.89 735.333 1461.31 735.333C1454.56 735.333 1451.18 730.641 1451.18 721.257C1451.18 705.714 1456.91 689.438 1468.36 672.429C1479.95 655.42 1493.31 643.909 1508.43 637.897C1514.74 635.258 1520.46 633.938 1525.6 633.938C1531.33 633.938 1534.19 636.211 1534.19 640.757C1534.19 649.261 1528.17 659.012 1516.13 670.009C1504.1 681.007 1490.59 689.365 1475.62 695.083C1475.03 695.23 1474.52 695.743 1474.08 696.623C1471.88 702.635 1470.78 707.987 1470.78 712.679C1470.78 717.958 1472.76 720.597 1476.72 720.597C1483.03 720.597 1491.33 715.831 1501.6 706.3ZM1553.12 599.847C1549.16 604.392 1544.39 608.425 1538.81 611.944C1533.38 615.316 1528.9 617.589 1525.38 618.762L1520.32 620.522C1518.7 620.522 1517.9 620.228 1517.9 619.642C1517.9 619.202 1518.19 618.542 1518.78 617.662C1520.24 616.489 1522.45 614.29 1525.38 611.064C1528.32 607.838 1530.89 604.979 1533.09 602.486L1536.39 598.527C1537.27 597.207 1538.67 596.548 1540.57 596.548H1551.36C1553.12 596.548 1554.01 597.061 1554.01 598.087C1554.01 598.674 1553.71 599.26 1553.12 599.847Z" fill="black"/>
<path d="M1574.73 655.933C1576.49 652.267 1577.37 649.041 1577.37 646.255C1577.37 643.909 1576.63 642.736 1575.17 642.736C1574.29 642.736 1573.26 643.029 1572.08 643.616C1571.06 644.056 1570.25 644.569 1569.66 645.156L1568.56 646.035C1564.01 649.994 1558.29 657.253 1551.39 667.81C1544.64 678.221 1541.26 684.892 1541.26 687.825C1541.26 688.412 1541.41 688.705 1541.7 688.705C1542.58 688.705 1544.49 687.972 1547.42 686.505C1550.51 685.039 1554.84 681.593 1560.41 676.168C1566.14 670.743 1570.91 663.998 1574.73 655.933ZM1564.82 706.3C1572.6 699.116 1583.75 687.238 1598.29 670.669C1598.73 670.229 1599.09 670.009 1599.39 670.009C1599.68 670.009 1599.83 670.303 1599.83 670.889C1599.83 673.675 1598.73 676.388 1596.52 679.027C1585.66 691.051 1576.05 701.095 1567.68 709.16C1561.52 715.318 1554.18 721.257 1545.66 726.975C1537.15 732.547 1530.1 735.333 1524.53 735.333C1517.77 735.333 1514.4 730.641 1514.4 721.257C1514.4 705.714 1520.12 689.438 1531.57 672.429C1543.17 655.42 1556.52 643.909 1571.64 637.897C1577.96 635.258 1583.68 633.938 1588.82 633.938C1594.54 633.938 1597.4 636.211 1597.4 640.757C1597.4 649.261 1591.39 659.012 1579.35 670.009C1567.31 681.007 1553.81 689.365 1538.84 695.083C1538.25 695.23 1537.74 695.743 1537.3 696.623C1535.09 702.635 1533.99 707.987 1533.99 712.679C1533.99 717.958 1535.97 720.597 1539.94 720.597C1546.25 720.597 1554.54 715.831 1564.82 706.3Z" fill="black"/>
<path d="M984.005 329.349C978.501 344.318 969.786 356.995 957.859 367.381C945.933 377.462 934.771 384.336 924.374 388.001C914.282 391.667 905.108 393.5 896.851 393.5C874.527 393.5 863.366 384.794 863.366 367.381C863.366 349.664 873.151 333.626 892.723 319.268C901.897 312.548 911.836 308.118 922.539 305.98C924.068 305.98 924.832 306.591 924.832 307.813C924.832 308.424 924.527 309.035 923.915 309.646C916.27 315.45 908.93 324.461 901.897 336.681C895.169 348.9 891.805 359.592 891.805 368.756C891.805 377.92 895.628 382.503 903.273 382.503C909.389 382.503 915.352 380.059 921.163 375.171C927.279 369.978 931.866 364.785 934.924 359.592L939.511 352.26C945.627 342.485 950.673 326.905 954.648 305.522C958.93 284.138 961.682 265.198 962.905 248.702L964.281 223.959C964.281 221.515 963.822 220.293 962.905 220.293L961.07 221.209L915.658 274.363C912.294 278.334 910.001 280.32 908.778 280.32C907.249 280.32 906.484 279.25 906.484 277.112C906.484 273.141 907.554 270.086 909.695 267.948L913.823 262.907C948.685 223.806 968.562 200.131 973.455 191.883C978.042 184.857 984.77 178.747 993.638 173.554C1002.2 168.667 1012.29 166.223 1023.91 166.223C1026.97 166.223 1028.5 167.445 1028.5 169.889C1028.5 171.416 1027.28 172.791 1024.83 174.013C1023.91 174.318 1022.69 175.082 1021.16 176.304C1019.94 177.22 1017.49 179.664 1013.82 183.635C1010.46 187.606 1007.4 192.189 1004.65 197.382C1001.9 202.575 999.449 209.906 997.308 219.376C995.167 228.541 994.097 238.774 994.097 250.077C994.097 285.207 990.733 311.631 984.005 329.349Z" fill="black"/>
</g>
</svg>
